<?xml version="1.0" encoding="utf-8"?>
<!-- Generator: Adobe Illustrator 19.0.0, SVG Export Plug-In . SVG Version: 6.00 Build 0)  -->
<svg version="1.1" id="圖層_1" xmlns="http://www.w3.org/2000/svg" xmlns:xlink="http://www.w3.org/1999/xlink" x="0px" y="0px"
	 viewBox="45 -33.8 150 150" style="enable-background:new 45 -33.8 150 150;" xml:space="preserve">
<style type="text/css">
	.st0{enable-background:new    ;}
</style>
<g class="st0">
	<path d="M124.6,26.9c-1.9,23.4-8.7,41.5-20.5,54.2c-9.7,10.4-24.5,18.4-44.4,24l-2-3.4c21.8-8.5,37-19.7,45.6-33.7
		c8.4-14,12.6-32.6,12.6-56v-38.7c10.5,0.4,15.7,1.7,15.7,3.9c0,1.4-2.1,2.7-6.4,4.1C125.2-5.3,125,9.9,124.6,26.9z M85.4,4.6l4,1
		c0,0.6,0.1,2.2,0.2,4.8c0,1.3,0.1,2.1,0.1,2.6c0,14.4-2.9,26-8.7,34.8c-2.8,4.3-5.7,6.4-8.6,6.4c-3.7,0-5.5-1.8-5.5-5.3
		c0-1.6,0.9-3.2,2.7-5.1C78.6,35.1,83.9,22,85.4,4.6z M179.7,98c0,3.6-1.5,5.4-4.5,5.4c-2,0-3.8-1.2-5.4-3.7
		C157,81.1,139.9,64,118.3,48.4l2.3-3.4C160,67.3,179.7,85,179.7,98z M138.9,40.3c10.5-13,19.4-27.4,26.5-43.4
		c8.7,4.6,13.1,8,13.1,10.2c0,1.4-2.4,2.1-7.1,2.1c-8.5,12.4-18.3,23.5-29.5,33.5L138.9,40.3z"/>
</g>
</svg>
