<?xml version="1.0" encoding="utf-8"?>
<!-- Generator: Adobe Illustrator 19.0.0, SVG Export Plug-In . SVG Version: 6.00 Build 0)  -->
<svg version="1.1" id="圖層_1" xmlns="http://www.w3.org/2000/svg" xmlns:xlink="http://www.w3.org/1999/xlink" x="0px" y="0px"
	 viewBox="45 -33.8 150 150" style="enable-background:new 45 -33.8 150 150;" xml:space="preserve">
<style type="text/css">
	.st0{enable-background:new    ;}
</style>
<g class="st0">
	<path d="M89.1,37.8c20.6,8.4,35.3,16.8,44.2,25c7.2,6.6,10.8,12.2,10.8,16.8c0,3.9-1.7,5.9-5.1,5.9c-2.1,0-4.4-2.3-7.2-7
		c-7-11.7-21.9-24.2-44.7-37.6L89.1,37.8z M94.2-15.9c16.7,7.5,29.4,15.3,38.4,23.5c7.2,6.6,10.8,12.2,10.8,16.8
		c0,3.9-1.7,5.9-5.1,5.9c-2.1,0-4.4-2.3-7.2-7c-7-11.7-20-23.7-38.8-36.1L94.2-15.9z"/>
</g>
</svg>
