<?xml version="1.0" encoding="utf-8"?>
<!-- Generator: Adobe Illustrator 19.0.0, SVG Export Plug-In . SVG Version: 6.00 Build 0)  -->
<svg version="1.1" id="圖層_1" xmlns="http://www.w3.org/2000/svg" xmlns:xlink="http://www.w3.org/1999/xlink" x="0px" y="0px"
	 viewBox="45 -33.8 150 150" style="enable-background:new 45 -33.8 150 150;" xml:space="preserve">
<style type="text/css">
	.st0{enable-background:new    ;}
</style>
<g class="st0">
	<path d="M152.8,19.9H87l-0.3,1.3c-1.6,7.6-3.9,16-7,25.3h80.8l6.2-6.9c6.4,5,9.6,8.3,9.6,9.7c0,0.7-0.5,1.4-1.5,1.9l-4.3,2.6
		c-1.5,22.5-5.4,37-11.6,43.5c-4.1,4.2-10,6.3-17.9,6.3c-0.1-2.9-2.5-5.2-7-6.9c-3.6-1.2-10.4-2.6-20.5-4.4v-4.2
		C124.8,90.1,135,91,144,91c5.6,0,9.3-2.3,11.3-6.9c3.6-8.5,5.7-19.8,6.4-33.9H78.3c-1.1,3.1-2.6,7-4.5,11.7l-8.9-3.1
		c6.3-14.6,11.3-30.6,14.9-47.9c1,0.5,1.7,0.9,2,1.1c1.4,0.6,4,2,7.8,4.2h63.3v-27.9H65.2l-1.5-3.7h87.5l6-7.6
		c6.7,4.9,10.1,8.2,10.1,9.9c0,0.6-0.4,1.1-1.2,1.6l-4.5,2.9v37.2h-8.9V19.9z"/>
</g>
</svg>
