<?xml version="1.0" encoding="utf-8"?>
<!-- Generator: Adobe Illustrator 19.0.0, SVG Export Plug-In . SVG Version: 6.00 Build 0)  -->
<svg version="1.1" id="圖層_1" xmlns="http://www.w3.org/2000/svg" xmlns:xlink="http://www.w3.org/1999/xlink" x="0px" y="0px"
	 viewBox="45 -33.8 150 150" style="enable-background:new 45 -33.8 150 150;" xml:space="preserve">
<style type="text/css">
	.st0{enable-background:new    ;}
</style>
<g class="st0">
	<path d="M114.1,52H77.3v14.9h-8.7v-73C79-5.7,84.2-4.3,84.2-2c0,1.4-2.3,2.9-6.9,4.5v45.8h37.2c0.4-3.1,0.6-7.2,0.6-12.5v-62.3
		c11,0.4,16.5,1.8,16.5,4.2c0,1.5-2.4,3-7.3,4.7v53.2c0,4.5-0.2,8.7-0.6,12.6h38.8V-7.1c10,0.4,15,1.9,15,4.2c0,1.3-2.1,2.8-6.2,4.5
		v63.3h-8.9V52h-39.3c-2.1,14.7-7.3,26.4-15.7,35.1c-6.4,6.9-16.2,12.8-29.2,17.9l-2.4-3.6c14.4-6.8,24.5-15.5,30.5-26.1
		C110,68.7,112.6,61,114.1,52z"/>
</g>
</svg>
