<?xml version="1.0" encoding="utf-8"?>
<!-- Generator: Adobe Illustrator 19.0.0, SVG Export Plug-In . SVG Version: 6.00 Build 0)  -->
<svg version="1.1" id="圖層_1" xmlns="http://www.w3.org/2000/svg" xmlns:xlink="http://www.w3.org/1999/xlink" x="0px" y="0px"
	 viewBox="45 -33.8 150 150" style="enable-background:new 45 -33.8 150 150;" xml:space="preserve">
<style type="text/css">
	.st0{enable-background:new    ;}
</style>
<g class="st0">
	<path d="M85.9-4.4v78.9c0,4.1,1.2,6.5,3.7,7.3c3.2,0.8,12.6,1.2,28.1,1.2c21.2,0,37.9-0.6,50.1-1.8c0.6-0.1,1.3-0.1,2.3-0.1
		c2.4,0,4.3,1,5.5,3c0.9,1.7,1.4,3,1.4,4c0,1.3-1.1,2.1-3.3,2.4c-4.8,0.5-19.8,0.7-45,0.7c-26.9,0-42.2-0.7-46.1-2.1
		c-4-1.6-6-5.8-6-12.5V-4.4h-17l-1.5-3.7h103.6l8.3-10.9c4.3,3.9,8.1,7.7,11.4,11.5l-1.8,3.1H85.9z"/>
</g>
</svg>
