<?xml version="1.0" encoding="utf-8"?>
<!-- Generator: Adobe Illustrator 19.0.0, SVG Export Plug-In . SVG Version: 6.00 Build 0)  -->
<svg version="1.1" id="圖層_1" xmlns="http://www.w3.org/2000/svg" xmlns:xlink="http://www.w3.org/1999/xlink" x="0px" y="0px"
	 viewBox="45 -33.8 150 150" style="enable-background:new 45 -33.8 150 150;" xml:space="preserve">
<style type="text/css">
	.st0{enable-background:new    ;}
</style>
<g class="st0">
	<path d="M74.8,6.6h39v-33.9c10.6,0.4,15.9,1.7,15.9,3.9c0,1.4-2.2,2.9-6.7,4.5V6.6h40.6l6.2-7.6c6.5,5.3,9.7,8.6,9.7,10
		c0,0.7-0.5,1.3-1.4,1.8l-4.2,2.6v52.2h-9V55.3h-42v50h-9.2v-50H73.5v12.3h-9V1.4C67.4,2.7,70.9,4.4,74.8,6.6z M73.5,10.3v41.2h40.4
		V10.3H73.5z M165,51.5V10.3h-42v41.2H165z"/>
</g>
</svg>
