<?xml version="1.0" encoding="utf-8"?>
<!-- Generator: Adobe Illustrator 19.0.0, SVG Export Plug-In . SVG Version: 6.00 Build 0)  -->
<svg version="1.1" id="圖層_1" xmlns="http://www.w3.org/2000/svg" xmlns:xlink="http://www.w3.org/1999/xlink" x="0px" y="0px"
	 viewBox="45 -33.8 150 150" style="enable-background:new 45 -33.8 150 150;" xml:space="preserve">
<style type="text/css">
	.st0{enable-background:new    ;}
</style>
<g class="st0">
	<path d="M82.8-14.6h72.4l6-7.2c6.4,4.9,9.6,8.1,9.6,9.7c0,0.6-0.5,1.2-1.5,1.8l-3.9,2.4c0,6.4-0.2,20-0.7,40.8
		c-0.1,11.9-1,25.8-2.4,41.6h10.5l7.5-10.7c2.8,2.8,5.8,6.6,9.2,11.4l-1.8,3h-25.8c-0.8,8.3-1.8,13.7-3,16.3
		c-2.5,5.9-8.2,8.9-16.8,9c0-2.9-1.5-5.1-4.6-6.6c-2.5-1.2-7.9-2.5-16.2-3.9v-4c9,1.3,16.5,2,22.3,2c4.1,0,6.6-1.5,7.6-4.5
		c0.4-1.2,0.9-4,1.4-8.4H69.1c-0.8,4.8-1.4,8.2-1.8,10.3l-8.9-1.5c4-20.5,6.9-38.6,8.7-54.2c1.2-10.7,3.2-28.3,5.9-52.7
		C74.8-18.8,78-17.1,82.8-14.6z M156.2-10.9H80.9c-2,20-3.6,34.6-4.9,43.8c-1.6,11.4-3.7,25.3-6.3,41.6h83.1
		c1-9.6,1.9-23.4,2.7-41.6C155.8,23.9,156,9.3,156.2-10.9z"/>
</g>
</svg>
