<?xml version="1.0" encoding="utf-8"?>
<!-- Generator: Adobe Illustrator 19.0.0, SVG Export Plug-In . SVG Version: 6.00 Build 0)  -->
<svg version="1.1" id="圖層_1" xmlns="http://www.w3.org/2000/svg" xmlns:xlink="http://www.w3.org/1999/xlink" x="0px" y="0px"
	 viewBox="45 -33.8 150 150" style="enable-background:new 45 -33.8 150 150;" xml:space="preserve">
<style type="text/css">
	.st0{enable-background:new    ;}
</style>
<g class="st0">
	<path d="M53,88.1c12.5-16.5,18.8-41.2,18.8-74.3V0.2c10.3,0.1,15.5,1.4,15.5,3.7c0,1.3-2,2.7-6,4.3v5.1c0,35.9-8.4,61.6-25.2,77.2
		L53,88.1z M115.9-26.4c10.5,0.1,15.7,1.4,15.7,3.9c0,1.4-2.2,2.9-6.7,4.3v123.4h-9V-26.4z M163.4,86.7V-2.4
		C174-1.9,179.3-0.5,179.3,2c0,1.5-2.2,2.9-6.7,4.2v80.6H163.4z"/>
</g>
</svg>
