<?xml version="1.0" encoding="utf-8"?>
<!-- Generator: Adobe Illustrator 19.0.0, SVG Export Plug-In . SVG Version: 6.00 Build 0)  -->
<svg version="1.1" id="圖層_1" xmlns="http://www.w3.org/2000/svg" xmlns:xlink="http://www.w3.org/1999/xlink" x="0px" y="0px"
	 viewBox="45 -33.8 150 150" style="enable-background:new 45 -33.8 150 150;" xml:space="preserve">
<style type="text/css">
	.st0{enable-background:new    ;}
</style>
<g class="st0">
	<path d="M123.9,105.2h-9.2V5.2C100,43,79.8,69.8,54.2,85.6l-2.6-3c32-24.8,53-59.6,63.1-104.6L116-27c10.4,0.4,15.6,1.8,15.6,4
		c0,1.4-2.1,2.9-6.4,4.5l-1.2,3.2V105.2z M131.1-10.9c23.4,28.2,39.2,50.4,47.4,66.6c4.2,9.1,6.3,16.1,6.3,21c0,4.9-1.9,7.3-5.6,7.3
		c-2.5,0-4.5-3.4-6-10.3c-4.3-18.6-19.3-45.9-45-81.9L131.1-10.9z"/>
</g>
</svg>
