<?xml version="1.0" encoding="utf-8"?>
<!-- Generator: Adobe Illustrator 19.0.0, SVG Export Plug-In . SVG Version: 6.00 Build 0)  -->
<svg version="1.1" id="圖層_1" xmlns="http://www.w3.org/2000/svg" xmlns:xlink="http://www.w3.org/1999/xlink" x="0px" y="0px"
	 viewBox="45 -33.8 150 150" style="enable-background:new 45 -33.8 150 150;" xml:space="preserve">
<style type="text/css">
	.st0{enable-background:new    ;}
</style>
<g class="st0">
	<path d="M114.2,29.6H55.6l-1.3-3.7h60.1c0.1-3.3,0.1-6.6,0.1-10.1v-37.8c10.8,0.1,16.2,1.4,16.2,3.9c0,1.5-2.2,3-6.7,4.6v29.3
		c0,3.5-0.1,6.8-0.2,10.1h42.8l8.5-11.3c4.5,4.5,8.3,8.5,11.3,12l-1.7,3h-61.1c-1,18.7-4.2,33.7-9.7,45.1
		c-5.2,11.1-13.7,20.9-25.6,29.5l-2.7-2.9c12.5-12.1,20.8-26.6,24.9-43.4C112.5,49.8,113.7,40.3,114.2,29.6z"/>
</g>
</svg>
