<?xml version="1.0" encoding="utf-8"?>
<!-- Generator: Adobe Illustrator 19.0.0, SVG Export Plug-In . SVG Version: 6.00 Build 0)  -->
<svg version="1.1" id="圖層_1" xmlns="http://www.w3.org/2000/svg" xmlns:xlink="http://www.w3.org/1999/xlink" x="0px" y="0px"
	 viewBox="45 -33.8 150 150" style="enable-background:new 45 -33.8 150 150;" xml:space="preserve">
<style type="text/css">
	.st0{enable-background:new    ;}
</style>
<g class="st0">
	<path d="M142.4,27.4h-20.8l-1.4-3.8h22.2v-46.1c10.3,0.4,15.5,2,15.5,4.5c0,1.5-2.1,3-6.4,4.6v37h17.9l7.1-10
		c3.9,3.8,7.2,7.4,9.9,10.9l-1.7,2.9h-33.2v65.3h16.8l8.3-11.3c4.2,4.1,8,8.1,11.1,12l-2,3H54.5l-1.8-3.7h31.4V27.4H55.8l-1.5-3.8
		h29.9v-45.3c10.2,0.4,15.3,1.8,15.3,4.1c0,1.3-2.1,2.8-6.3,4.5v36.7h8.5l6.5-9.4c3.2,3,6.2,6.5,9.1,10.3l-1.6,2.9H93.2v65.3h49.2
		V27.4z"/>
</g>
</svg>
