<?xml version="1.0" encoding="utf-8"?>
<!-- Generator: Adobe Illustrator 19.0.0, SVG Export Plug-In . SVG Version: 6.00 Build 0)  -->
<svg version="1.1" id="圖層_1" xmlns="http://www.w3.org/2000/svg" xmlns:xlink="http://www.w3.org/1999/xlink" x="0px" y="0px"
	 viewBox="45 -33.8 150 150" style="enable-background:new 45 -33.8 150 150;" xml:space="preserve">
<style type="text/css">
	.st0{enable-background:new    ;}
</style>
<g class="st0">
	<path d="M93,27.2H63.3l-1.8-3.7H93v-45.1c10.2,0.4,15.3,1.8,15.3,4.1c0,1.3-2.1,2.8-6.3,4.5v36.5h34.6v-46
		c10.3,0.4,15.5,2,15.5,4.5c0,1.5-2.1,3-6.4,4.6v36.8h15.5l7.6-12.2c3.5,3.8,6.7,8.1,9.8,13l-1.5,2.9h-31.4v65.5h22.7l8.3-11.3
		c4.2,4.1,8,8.1,11.1,12l-2,3H54.5l-1.8-3.7H93V27.2z M136.6,27.2H102v65.5h34.6V27.2z"/>
</g>
</svg>
