<?xml version="1.0" encoding="utf-8"?>
<!-- Generator: Adobe Illustrator 19.0.0, SVG Export Plug-In . SVG Version: 6.00 Build 0)  -->
<svg version="1.1" id="圖層_1" xmlns="http://www.w3.org/2000/svg" xmlns:xlink="http://www.w3.org/1999/xlink" x="0px" y="0px"
	 viewBox="45 -33.8 150 150" style="enable-background:new 45 -33.8 150 150;" xml:space="preserve">
<style type="text/css">
	.st0{enable-background:new    ;}
</style>
<g class="st0">
	<path d="M76.6,76.5c6.6-11.6,2.7-20.6-11.6-27l12.7-24H54.7L52.9,22H76l5.6-6.7c6.1,4.4,9.2,7.4,9.2,8.9c0,0.4-0.4,1-1.3,1.8
		l-3.3,2.4L74,48.5c12.7,5,16.8,13.4,12.1,25.3c7.5,12,27.9,18,61,18c12.3,0,26-0.8,41.2-2.3c-2.3,3.1-4.1,6.5-5.1,10.4h-26.9
		c-24.4,0-41.7-1.9-51.9-5.6c-10.2-3.6-17.3-9.1-21.3-16.6C77,85.2,70.4,91.8,63.2,97.6c0,3.9-0.6,5.9-1.8,5.9c-2.2,0-5.2-4-9.2-12
		C61.5,87.6,69.6,82.6,76.6,76.5z M62.1-23.5C79.2-16.2,87.7-8.8,87.7-1.3c0,4-1.9,6-5.7,6c-2.2,0-4-1.9-5.5-5.6
		c-2.9-7.4-8.4-14-16.6-19.6L62.1-23.5z"/>
</g>
</svg>
