<?xml version="1.0" encoding="utf-8"?>
<!-- Generator: Adobe Illustrator 19.0.0, SVG Export Plug-In . SVG Version: 6.00 Build 0)  -->
<svg version="1.1" id="圖層_1" xmlns="http://www.w3.org/2000/svg" xmlns:xlink="http://www.w3.org/1999/xlink" x="0px" y="0px"
	 viewBox="45 -33.8 150 150" style="enable-background:new 45 -33.8 150 150;" xml:space="preserve">
<style type="text/css">
	.st0{enable-background:new    ;}
</style>
<g class="st0">
	<path d="M85.7,73.9c3.9,6.3,10,10.9,18.2,13.5c9.1,3.1,23,4.6,41.5,4.6c13.2,0,27.3-0.8,42.3-2.4c-2.2,3.2-3.7,6.6-4.5,10.4H152
		c-23.5,0-40.2-2-50-5.9c-8.2-3.3-14.2-8.2-18-14.7c-7.6,7.4-14.4,13.5-20.6,18.2c0,4-0.6,6-1.9,6c-2.1,0-5-3.9-8.7-11.7
		c7.4-2.9,15.6-7,24.5-12.5V47.4H54.8l-1.5-3.7h22.6l5.9-7.2c6,4.5,8.9,7.6,8.9,9.1c0,0.7-0.5,1.4-1.5,2l-3.4,2.1V73.9z M59.9,1.1
		c16,5.5,24,12,24,19.3c0,3.7-1.7,5.6-5,5.6c-2.2,0-4-1.6-5.4-4.8c-2.7-6.2-7.8-11.8-15.4-17.1L59.9,1.1z M67.4-26.2
		C84.5-21.3,93-15.2,93-7.7C93-3.9,91.2-2,87.6-2c-1.9,0-3.6-1.4-5-4.3c-2.6-5.7-8.3-11.4-17.1-17L67.4-26.2z"/>
</g>
</svg>
