<?xml version="1.0" encoding="utf-8"?>
<!-- Generator: Adobe Illustrator 19.0.0, SVG Export Plug-In . SVG Version: 6.00 Build 0)  -->
<svg version="1.1" id="圖層_1" xmlns="http://www.w3.org/2000/svg" xmlns:xlink="http://www.w3.org/1999/xlink" x="0px" y="0px"
	 viewBox="45 -33.8 150 150" style="enable-background:new 45 -33.8 150 150;" xml:space="preserve">
<style type="text/css">
	.st0{enable-background:new    ;}
</style>
<g class="st0">
	<path d="M98.8,0.6l4,0.9c0.6,5.3,0.9,9.8,0.9,13.5c0,10.3-1.5,18.3-4.6,24.1c-2,3.7-4.2,5.6-6.7,5.6c-3.6,0-5.4-1.6-5.4-4.8
		c0-1.3,0.6-2.7,1.8-4.2C95,27.7,98.4,16,98.8,0.6z M114.9,103V-25.2c10.4,0.1,15.6,1.4,15.6,3.7c0,1.5-2.1,2.9-6.4,4.2V103H114.9z
		 M131.8-3c10.4,9.8,15.6,19,15.6,27.8c0,4.5-1.9,6.7-5.7,6.7c-2.5,0-3.9-2.1-4-6.4c-0.6-9-3.4-17.5-8.6-25.6L131.8-3z"/>
</g>
</svg>
