<?xml version="1.0" encoding="utf-8"?>
<!-- Generator: Adobe Illustrator 19.0.0, SVG Export Plug-In . SVG Version: 6.00 Build 0)  -->
<svg version="1.1" id="圖層_1" xmlns="http://www.w3.org/2000/svg" xmlns:xlink="http://www.w3.org/1999/xlink" x="0px" y="0px"
	 viewBox="45 -33.8 150 150" style="enable-background:new 45 -33.8 150 150;" xml:space="preserve">
<style type="text/css">
	.st0{enable-background:new    ;}
</style>
<g class="st0">
	<path d="M100.6,28v56c23.1-3,46.2-7.7,69.1-14l1,3.1c-23.7,8.3-48.2,14.9-73.4,20.1c-0.7,4.2-1.7,6.3-3,6.3
		c-2.1,0-4.6-4.7-7.5-14.2c1.5-0.1,2.9-0.3,4.3-0.4V28.8L55.5,32l-1.8-4.1l37.4-3.2V-24c10.6,0.4,15.9,1.9,15.9,4.3
		c0,1.4-2.1,2.9-6.4,4.5v39l66.1-5.7l6.9-11.6c4.5,3.3,8.6,6.9,12.3,10.8l-1.2,3.1L100.6,28z"/>
</g>
</svg>
