<?xml version="1.0" encoding="utf-8"?>
<!-- Generator: Adobe Illustrator 19.0.0, SVG Export Plug-In . SVG Version: 6.00 Build 0)  -->
<svg version="1.1" id="圖層_1" xmlns="http://www.w3.org/2000/svg" xmlns:xlink="http://www.w3.org/1999/xlink" x="0px" y="0px"
	 viewBox="45 -33.8 150 150" style="enable-background:new 45 -33.8 150 150;" xml:space="preserve">
<style type="text/css">
	.st0{enable-background:new    ;}
</style>
<g class="st0">
	<path d="M104.3,27.9v56.7c0,2.5,0.7,4.1,2.1,4.8c1.9,0.9,10.1,1.3,24.5,1.3c17.3,0,31.5-0.5,42.4-1.5c4.4-0.3,6.6,0.9,6.6,3.5
		c0.1,2.1-2.5,3.7-7.8,4.9c-4.5,0.9-17.3,1.3-38.5,1.3c-20.5,0-32.2-0.9-34.9-2.6c-2.6-1.7-3.9-5.2-3.9-10.6V29.1l-39.3,5.1
		l-1.8-4.1l41.1-5.3V-24c10.6,0.4,15.9,1.9,15.9,4.3c0,1.4-2.1,2.9-6.4,4.5v38.5l62.4-8.2l6.9-11.6c4.5,3.3,8.6,6.9,12.3,10.8
		l-1.2,3.1L104.3,27.9z"/>
</g>
</svg>
