<?xml version="1.0" encoding="utf-8"?>
<!-- Generator: Adobe Illustrator 19.0.0, SVG Export Plug-In . SVG Version: 6.00 Build 0)  -->
<svg version="1.1" id="圖層_1" xmlns="http://www.w3.org/2000/svg" xmlns:xlink="http://www.w3.org/1999/xlink" x="0px" y="0px"
	 viewBox="45 -33.8 150 150" style="enable-background:new 45 -33.8 150 150;" xml:space="preserve">
<style type="text/css">
	.st0{enable-background:new    ;}
</style>
<g class="st0">
	<path d="M125.1,22.8v26.1h43.1l8.3-11.4c4.4,4,8.2,8,11.3,12.2l-2,3h-60.7v39.2c0,7.4-5.6,11.1-16.9,10.9c-0.2-3.6-2.2-6-6.1-7.3
		c-3.1-1.1-8.8-2.3-17.1-3.6v-4.2c9.9,1.2,18.3,1.8,25.3,1.8c3.7,0,5.6-1.6,5.6-4.8V52.6H54.6L53,48.8h63V22.8H63.2L61.5,19H116
		V-7.6c-13.9,2-30.6,3.7-50.2,5.2l-1.5-3.7c38-4.2,68.4-10.5,91.1-18.9c7.4,4.2,11.1,7.3,11.1,9.3c0,1-1.1,1.5-3.3,1.5
		c-1.1,0-3.1-0.3-6-0.8c-10.3,2.4-20.9,4.4-31.9,6V19h34.6l8-10.6c3.3,3,6.8,6.8,10.6,11.2l-1.7,3.1H125.1z"/>
</g>
</svg>
