<?xml version="1.0" encoding="utf-8"?>
<!-- Generator: Adobe Illustrator 19.0.0, SVG Export Plug-In . SVG Version: 6.00 Build 0)  -->
<svg version="1.1" id="圖層_1" xmlns="http://www.w3.org/2000/svg" xmlns:xlink="http://www.w3.org/1999/xlink" x="0px" y="0px"
	 viewBox="45 -33.8 150 150" style="enable-background:new 45 -33.8 150 150;" xml:space="preserve">
<style type="text/css">
	.st0{enable-background:new    ;}
</style>
<g class="st0">
	<path d="M101.3,17.6H64.1l-1.6-3.7h39.6c0.7-6.2,1.1-19,1.1-38.5c10.9,1.8,16.3,3.6,16.3,5.4c0,1.3-2.4,2.7-7.1,4.2
		c-0.6,15.4-1,25-1.2,28.9h48.7l6.3-7.6c6.5,5.1,9.8,8.4,9.8,9.9c0,0.4-0.3,0.9-1,1.3l-4.6,2.9v75.3h-8.9v-78h-51.1
		c-2.3,33.5-4.9,59.9-7.7,79.1L94,94.2C96.8,75.8,99.2,50.2,101.3,17.6z"/>
</g>
</svg>
