<?xml version="1.0" encoding="utf-8"?>
<!-- Generator: Adobe Illustrator 19.0.0, SVG Export Plug-In . SVG Version: 6.00 Build 0)  -->
<svg version="1.1" id="圖層_1" xmlns="http://www.w3.org/2000/svg" xmlns:xlink="http://www.w3.org/1999/xlink" x="0px" y="0px"
	 viewBox="45 -33.8 150 150" style="enable-background:new 45 -33.8 150 150;" xml:space="preserve">
<style type="text/css">
	.st0{enable-background:new    ;}
</style>
<g class="st0">
	<path d="M73.8,14.8h95l6.4-7.6c7.9,7.3,11.8,12,11.8,14.1c0,0.9-0.7,1.5-2.1,1.6l-6,1c-5.2,6.4-10.9,12.2-17.1,17.2l-2.9-2.3
		c4.2-6.3,7.7-13,10.4-20.2H73.9c0,8-1.5,14.7-4.5,20.1c-2.9,4.8-6,7.2-9.3,7.2c-3.8,0-5.7-1.9-5.7-5.6c0-1.5,1.2-3.5,3.7-5.9
		c6.2-5.9,9.9-14.5,11.1-25.6l3.9,0.7C73.2,10,73.4,11.7,73.8,14.8z"/>
</g>
</svg>
