<?xml version="1.0" encoding="utf-8"?>
<!-- Generator: Adobe Illustrator 19.0.0, SVG Export Plug-In . SVG Version: 6.00 Build 0)  -->
<svg version="1.1" id="圖層_1" xmlns="http://www.w3.org/2000/svg" xmlns:xlink="http://www.w3.org/1999/xlink" x="0px" y="0px"
	 viewBox="45 -33.8 150 150" style="enable-background:new 45 -33.8 150 150;" xml:space="preserve">
<style type="text/css">
	.st0{enable-background:new    ;}
</style>
<g class="st0">
	<path d="M115.8,58V18.9c-18.6,2.9-36.4,5-53.4,6.3l-1.8-4c19.9-2.3,38.3-5.3,55.2-8.9v-38.5c11.1,0.4,16.6,1.7,16.6,3.9
		c0,1.3-2.3,2.7-6.9,4.4v28.1c15.9-3.7,30.4-8,43.6-12.9c7.2,4.6,10.8,8,10.8,10.2c0,1.2-1.2,1.8-3.6,1.8c-1.2,0-3.1-0.2-5.6-0.7
		c-15.5,3.4-30.6,6.3-45.2,8.8v38.6c18.4-4.4,34.2-9.1,47.4-14c7.2,4.6,10.8,8,10.8,10.2c0,1.2-1.2,1.8-3.6,1.8
		c-1.2,0-3.1-0.2-5.6-0.7c-15.5,3.4-31.9,6.7-49,9.9v40.3h-9.7V64.6c-20.8,3.1-39.6,5.3-56.7,6.6l-1.8-4
		C77.2,64.9,96.7,61.8,115.8,58z"/>
</g>
</svg>
