<?xml version="1.0" encoding="utf-8"?>
<!-- Generator: Adobe Illustrator 19.0.0, SVG Export Plug-In . SVG Version: 6.00 Build 0)  -->
<svg version="1.1" id="圖層_1" xmlns="http://www.w3.org/2000/svg" xmlns:xlink="http://www.w3.org/1999/xlink" x="0px" y="0px"
	 viewBox="45 -33.8 150 150" style="enable-background:new 45 -33.8 150 150;" xml:space="preserve">
<style type="text/css">
	.st0{enable-background:new    ;}
</style>
<g class="st0">
	<path d="M56.9,103.5l-2.4-3.7c35.4-13.8,55.1-37.9,58.8-72.1H57.7l-1.3-3.7h57.1c0.2-4.6,0.3-8,0.3-10.2v-38.8
		c10.4,0.4,15.6,1.8,15.6,4c0,1.5-2.1,2.9-6.4,4.2v30.3c0,2.2-0.1,5.7-0.3,10.5h42.4l8-10.8c3.8,3.7,7.3,7.6,10.6,11.7l-1.6,2.9
		h-59.5C118.3,67.2,96.4,92.5,56.9,103.5z"/>
</g>
</svg>
