<?xml version="1.0" encoding="utf-8"?>
<!-- Generator: Adobe Illustrator 19.0.0, SVG Export Plug-In . SVG Version: 6.00 Build 0)  -->
<svg version="1.1" id="圖層_1" xmlns="http://www.w3.org/2000/svg" xmlns:xlink="http://www.w3.org/1999/xlink" x="0px" y="0px"
	 viewBox="45 -33.8 150 150" style="enable-background:new 45 -33.8 150 150;" xml:space="preserve">
<style type="text/css">
	.st0{enable-background:new    ;}
</style>
<g class="st0">
	<path d="M87.6,11h34.3v-36.8c10.9,0.1,16.3,1.4,16.3,3.7c0,1.5-2.4,3-7.2,4.5V11h24l7.8-10.2c3.7,3.1,7.3,6.7,10.6,10.8l-1.8,3.1
		h-40.6v38H166l8.7-10.7c4.3,4.2,7.7,8,10.2,11.4l-1.6,3h-52.2v48.7h-9.2V56.5H56.5l-1.3-3.7h21.9V6.2C81.9,8.3,85.4,9.9,87.6,11z
		 M85.9,14.8v38h36v-38H85.9z"/>
</g>
</svg>
