<?xml version="1.0" encoding="utf-8"?>
<!-- Generator: Adobe Illustrator 19.0.0, SVG Export Plug-In . SVG Version: 6.00 Build 0)  -->
<svg version="1.1" id="圖層_1" xmlns="http://www.w3.org/2000/svg" xmlns:xlink="http://www.w3.org/1999/xlink" x="0px" y="0px"
	 viewBox="45 -33.8 150 150" style="enable-background:new 45 -33.8 150 150;" xml:space="preserve">
<style type="text/css">
	.st0{enable-background:new    ;}
</style>
<g class="st0">
	<path d="M74.9,55h49.4V11.9H59.1l-1.5-3.7h66.7v-33.9c10.9,0.1,16.3,1.4,16.3,3.7c0,1.5-2.4,3-7.2,4.5V8.2h27.8l7.8-10.3
		c4.2,3.9,7.8,7.6,10.6,11.2l-1.8,2.9h-44.5V55h31.9l8.2-11.4c4.3,4.1,8.1,8.1,11.3,12.2l-1.8,3h-49.5v46.5h-9.2V58.7H73.8
		c-1.1,4-2.3,7.9-3.6,11.6l-8.6-2.6c4.8-14.1,8.6-29.7,11.3-46.9c9.1,1.7,13.7,3.5,13.7,5.6c0,1.4-2.1,2.7-6.2,3.7
		C78.5,40.4,76.6,48.7,74.9,55z"/>
</g>
</svg>
