<?xml version="1.0" encoding="utf-8"?>
<!-- Generator: Adobe Illustrator 19.0.0, SVG Export Plug-In . SVG Version: 6.00 Build 0)  -->
<svg version="1.1" id="圖層_1" xmlns="http://www.w3.org/2000/svg" xmlns:xlink="http://www.w3.org/1999/xlink" x="0px" y="0px"
	 viewBox="45 -33.8 150 150" style="enable-background:new 45 -33.8 150 150;" xml:space="preserve">
<style type="text/css">
	.st0{enable-background:new    ;}
</style>
<g class="st0">
	<path d="M71.1-11.2v93.9c0,3.4,1.2,5.3,3.7,5.7c3.7,0.8,19.1,1.2,46.1,1.2c21.8,0,40-0.6,54.6-1.9c0.6,0,1.4-0.1,2.2-0.2
		c0.5,0,0.8-0.1,1-0.1c2,0,3.5,0.6,4.8,1.9c1.1,1.2,1.7,2.7,1.7,4.5c0,1.3-0.8,2.2-2.5,2.7c-1.1,0.3-3.1,0.6-6.1,0.7
		c-4.9,0.4-21,0.6-48.1,0.6c-37.4,0-57.5-0.7-60.6-2c-3.8-1.5-5.7-5.5-5.7-12.1V-19.1c10,0.3,15,1.5,15,3.6
		C77.1-14.3,75.1-12.8,71.1-11.2z"/>
</g>
</svg>
