<?xml version="1.0" encoding="utf-8"?>
<!-- Generator: Adobe Illustrator 19.0.0, SVG Export Plug-In . SVG Version: 6.00 Build 0)  -->
<svg version="1.1" id="圖層_1" xmlns="http://www.w3.org/2000/svg" xmlns:xlink="http://www.w3.org/1999/xlink" x="0px" y="0px"
	 viewBox="45 -33.8 150 150" style="enable-background:new 45 -33.8 150 150;" xml:space="preserve">
<style type="text/css">
	.st0{enable-background:new    ;}
</style>
<g class="st0">
	<path d="M98.1,12.4l5.9-7.6c6.3,5.4,9.4,8.9,9.4,10.5c0,0.7-0.5,1.3-1.5,1.8l-3.9,2.1c-4.1,14.6-9.2,27-15.3,37.1
		c-8.1,13-19.4,24-33.9,33L56.4,86c21.2-16.3,35.4-39.6,42.5-69.9H62.6l-1.3-3.7H98.1z M127.5,91.3c0,5.6-2,9-6,10.3
		c-2.4,0.9-5.6,1.4-9.6,1.4c-0.1-2.8-1.5-4.8-4-6.2c-2.5-1.3-7.7-2.7-15.5-4.1v-4c7.8,1.3,14.8,2,21.2,2c3.4,0,5.1-1.5,5.1-4.4
		V-26.3c10.6,0.1,15.9,1.5,15.9,4c0,1.4-2.3,3-7,4.6V91.3z M181.7,77.1c0,3.6-1.5,5.4-4.5,5.4c-2,0-3.8-1.2-5.4-3.7
		C159,64.3,145.5,52,131.2,41.9l2.3-3.4C165.6,55.3,181.7,68.2,181.7,77.1z M167.3-4.1c7.9,5.2,11.9,8.9,11.9,10.9
		c0,1.3-1.4,2-4.1,2c-1.4,0-2.5,0-3.3-0.1c-7.5,8.3-19.1,16.4-34.6,24.2l-1.8-2.9C149.4,19.9,160,8.6,167.3-4.1z"/>
</g>
</svg>
