<?xml version="1.0" encoding="utf-8"?>
<!-- Generator: Adobe Illustrator 19.0.0, SVG Export Plug-In . SVG Version: 6.00 Build 0)  -->
<svg version="1.1" id="圖層_1" xmlns="http://www.w3.org/2000/svg" xmlns:xlink="http://www.w3.org/1999/xlink" x="0px" y="0px"
	 viewBox="45 -33.8 150 150" style="enable-background:new 45 -33.8 150 150;" xml:space="preserve">
<style type="text/css">
	.st0{enable-background:new    ;}
</style>
<g class="st0">
	<path d="M95.1,12.4l5.9-7.6c6.3,5.4,9.4,8.9,9.4,10.5c0,0.7-0.5,1.3-1.5,1.8l-3.9,2.1c-4.1,14.6-9.2,27-15.3,37.1
		c-8.1,13-19.4,24-33.9,33L53.4,86c21.2-16.3,35.4-39.6,42.5-69.9H59.6l-1.3-3.7H95.1z M125.7-17.7c2.2,18.4,7.5,35.1,15.7,50.2
		c9.2-8.3,18.9-20.3,29.1-36c7.7,5.3,11.6,8.9,11.6,10.8c0,1.1-1.1,1.7-3.3,1.7c-0.8,0-2.1-0.2-3.9-0.5
		c-8.4,9.1-18.8,18.4-31.2,27.9c9.9,16,24.5,30.2,43.8,42.8c-2.9,2-5.4,4.8-7.4,8.3c-18.7-14.2-32.3-29.3-40.8-45.5
		c-6.3-11.9-10.9-25.1-13.6-39.8v87.5c0,8.7-5.3,13.1-15.9,13.1c0-2.8-1.2-4.8-3.7-6.2c-2.4-1.1-8.1-2.5-17.1-4.2v-4
		c9.1,1.2,16.7,1.8,22.8,1.8c3.4,0,5.1-1.5,5.1-4.5v-111c10,0.3,15,1.5,15,3.7C131.9-20.4,129.8-19.1,125.7-17.7z"/>
</g>
</svg>
