<?xml version="1.0" encoding="utf-8"?>
<!-- Generator: Adobe Illustrator 19.0.0, SVG Export Plug-In . SVG Version: 6.00 Build 0)  -->
<svg version="1.1" id="圖層_1" xmlns="http://www.w3.org/2000/svg" xmlns:xlink="http://www.w3.org/1999/xlink" x="0px" y="0px"
	 viewBox="45 -33.8 150 150" style="enable-background:new 45 -33.8 150 150;" xml:space="preserve">
<style type="text/css">
	.st0{enable-background:new    ;}
</style>
<g class="st0">
	<path d="M83.2,10.2h28l7-9.2c3.4,3.4,6.2,6.8,8.4,10.2l-1.8,2.7H92.2c11.8,8.1,17.7,15.6,17.7,22.5c0,4.1-1.9,6.2-5.6,6.2
		c-2.3,0-3.9-1.7-4.6-5C98,29.4,93.9,21.5,87.3,14h-5.9C74.9,28,66.1,39.7,55,49l-2.7-2.2c14.6-17.2,23.6-36.8,26.9-59
		c10.1,1.4,15.1,3.2,15.1,5.6C94.3-5.2,92-4,87.6-3C86.3,1.8,84.9,6.2,83.2,10.2z M141.8,10.2h30.1l7.1-9.3
		c3.1,2.6,6.4,6.1,9.7,10.3L187,14h-33.3c13.2,8.3,19.8,16,19.8,23.2c0,3.8-1.8,5.7-5.4,5.7c-2.6,0-4.3-1.9-5.2-5.6
		C161,29.8,156.1,22,148.3,14h-8c-5.6,12.7-13.2,23.7-22.8,32.9l-3-2.3c12.6-16.2,20.4-35.3,23.4-57.3c9.8,1.5,14.7,3.3,14.7,5.5
		c0,1.4-2.2,2.6-6.6,3.7C144.9,1.6,143.5,6.2,141.8,10.2z"/>
</g>
</svg>
