<?xml version="1.0" encoding="utf-8"?>
<!-- Generator: Adobe Illustrator 19.0.0, SVG Export Plug-In . SVG Version: 6.00 Build 0)  -->
<svg version="1.1" id="圖層_1" xmlns="http://www.w3.org/2000/svg" xmlns:xlink="http://www.w3.org/1999/xlink" x="0px" y="0px"
	 viewBox="45 -33.8 150 150" style="enable-background:new 45 -33.8 150 150;" xml:space="preserve">
<style type="text/css">
	.st0{enable-background:new    ;}
</style>
<g class="st0">
	<path d="M93.5,10.5v93.3h-9V10.5h-7.5c-6.4,13-14.3,24.2-23.5,33.5l-2.7-2.4C65.1,22.6,74.6-0.7,79.1-28.4c10.1,2,15.2,4,15.2,6
		c0,1.2-2.1,2.4-6.3,3.4c-2.4,8.7-5.4,17.2-9.2,25.6h24.5l7.3-10c3,2.8,6.3,6.5,9.9,11.1l-1.8,2.7H93.5z M159.5,10.5v79.6
		c0,8.2-5.4,12.3-16.3,12.3c0-2.9-1.5-5.1-4.5-6.4c-2.3-0.9-7.4-2-15.5-3.3v-4c8.1,1,15.1,1.5,21,1.5c4.2,0,6.3-1.5,6.3-4.5V10.5
		h-18.2c-5.8,11.6-12.8,21.9-21.2,30.9l-3.1-2.3c13.2-18.2,21.9-40.8,25.9-68c10.4,1.8,15.7,3.8,15.7,5.9c0,1.4-2.3,2.5-6.8,3.4
		c-2.1,8.9-5.1,17.7-8.9,26.4h37.1l7.5-10.2c3,2.7,6.3,6.4,9.9,11.1l-1.5,2.9H159.5z"/>
</g>
</svg>
