<?xml version="1.0" encoding="utf-8"?>
<!-- Generator: Adobe Illustrator 19.0.0, SVG Export Plug-In . SVG Version: 6.00 Build 0)  -->
<svg version="1.1" id="圖層_1" xmlns="http://www.w3.org/2000/svg" xmlns:xlink="http://www.w3.org/1999/xlink" x="0px" y="0px"
	 viewBox="45 -33.8 150 150" style="enable-background:new 45 -33.8 150 150;" xml:space="preserve">
<style type="text/css">
	.st0{enable-background:new    ;}
</style>
<g class="st0">
	<path d="M150.3-18.7l-33.6,70.2c-1.3,2.9-2,5.9-2,9c0,2,0.4,5.1,1.3,9.4c1.2,6.3,1.8,11.9,1.8,16.9c0,6.8-2.4,10.2-7.3,10.2
		c-3.4,0-5.1-1.7-5.1-5.1c0-0.2,0.4-3.9,1.2-11.1c0.4-2.7,0.6-5.7,0.6-9c0-6.4-1.7-10.6-5-12.7c-2.1-1.3-5.1-2.1-9.2-2.5v-4
		C96,52.9,97.9,53,99,53c4,0,7.1-1.7,9.3-5c8.9-13.3,21.8-36.3,38.7-69.1L150.3-18.7z"/>
</g>
</svg>
