<?xml version="1.0" encoding="utf-8"?>
<!-- Generator: Adobe Illustrator 19.0.0, SVG Export Plug-In . SVG Version: 6.00 Build 0)  -->
<svg version="1.1" id="圖層_1" xmlns="http://www.w3.org/2000/svg" xmlns:xlink="http://www.w3.org/1999/xlink" x="0px" y="0px"
	 viewBox="45 -33.8 150 150" style="enable-background:new 45 -33.8 150 150;" xml:space="preserve">
<style type="text/css">
	.st0{enable-background:new    ;}
</style>
<g class="st0">
	<path d="M143.4,85.9H94.7v15.5h-9.2v-80H56l-1.8-3.7h31.3v-41.4c10.3,0.3,15.5,1.6,15.5,3.9c0,1.3-2.1,2.7-6.3,4.3v33.2h48.7v-41.8
		c10.5,0.4,15.7,1.8,15.7,4c0,1.4-2.2,2.8-6.6,4.3v33.5h15.9L176,5.5c3.5,3.8,6.7,8.1,9.8,13l-1.5,2.9h-31.8v80h-9.2V85.9z
		 M94.7,82.2h48.7V21.4H94.7V82.2z"/>
</g>
</svg>
