<?xml version="1.0" encoding="utf-8"?>
<!-- Generator: Adobe Illustrator 19.0.0, SVG Export Plug-In . SVG Version: 6.00 Build 0)  -->
<svg version="1.1" id="圖層_1" xmlns="http://www.w3.org/2000/svg" xmlns:xlink="http://www.w3.org/1999/xlink" x="0px" y="0px"
	 viewBox="45 -33.8 150 150" style="enable-background:new 45 -33.8 150 150;" xml:space="preserve">
<style type="text/css">
	.st0{enable-background:new    ;}
</style>
<g class="st0">
	<path d="M92.9,4c16.3,5.4,24.4,11.5,24.4,18.5c0,4-1.8,6-5.4,6c-2.3,0-4.2-1.7-5.5-5.1c-2.2-5.8-7.3-11.2-15.3-16.2L92.9,4z
		 M153-0.5l-32.6,65.7c-2.2,4.2-3.3,8-3.3,11.2c0,0.9,0.2,2.7,0.7,5.4c1.2,5.4,1.8,10.6,1.8,15.5c0,5.1-2.2,7.6-6.6,7.6
		c-3.4,0-5.1-1.7-5.1-5.1c0-0.5,0.3-2.5,0.9-6.2c0.7-4.1,1.1-7.7,1.1-10.9c0-5.8-1.7-9.8-5-12c-2-1.4-5.3-2.6-10.2-3.7v-4.2
		c3.3,0.6,6,0.9,8.1,0.9c4.5,0,8.5-2.5,11.9-7.5c11.2-16.1,22.8-35.8,34.7-59.1L153-0.5z M107-26.9c17,4.7,25.5,10.4,25.5,17.3
		c0,3.9-1.8,5.9-5.4,5.9c-2.1,0-3.9-1.7-5.5-5.1c-2.8-5.6-8.3-10.6-16.6-15L107-26.9z"/>
</g>
</svg>
