<?xml version="1.0" encoding="utf-8"?>
<!-- Generator: Adobe Illustrator 19.0.0, SVG Export Plug-In . SVG Version: 6.00 Build 0)  -->
<svg version="1.1" id="圖層_1" xmlns="http://www.w3.org/2000/svg" xmlns:xlink="http://www.w3.org/1999/xlink" x="0px" y="0px"
	 viewBox="45 -33.8 150 150" style="enable-background:new 45 -33.8 150 150;" xml:space="preserve">
<style type="text/css">
	.st0{enable-background:new    ;}
</style>
<g class="st0">
	<path d="M124.6,14v21h10.1l6.6-9c3,2.7,5.9,6,8.7,9.9l-1.7,2.9h-23.7V84c9.2-2.5,18-5.3,26.3-8.3l1,3.7
		c-17.7,7.6-35.3,14-52.7,19.2c-0.4,3.7-1.3,5.6-2.7,5.6c-2.1,0-4.3-4.2-6.7-12.5c8.5-1.5,17.3-3.4,26.4-5.7V38.8H92.1l-1.5-3.7
		h25.7V14h-13.5c-3.6,4.4-8.1,9-13.5,13.8l-2.7-2.7C99.8,9.9,109.6-8.2,116-29.3c9.6,1.4,14.4,3,14.4,5c0,1.1-2.1,1.9-6.3,2.4
		c8.5,4.4,15.4,9,20.6,13.9c5.1,4.8,7.6,8.9,7.6,12.3c0,3.4-1.5,5.1-4.5,5.1c-1.7,0-3.4-1.6-5.1-4.8c-4.1-8-10.7-15.6-20.1-23.1
		c-5.3,11.7-10.9,21.3-16.8,28.8h22.7l6.2-8c2.2,1.9,5,4.9,8.3,8.9l-1.8,2.9H124.6z M96.2,46.9c8.8,9.1,13.2,17.7,13.2,25.9
		c0,4.8-1.9,7.2-5.7,7.2c-2.4,0-3.7-2.3-3.9-6.9c-0.1-8.2-2.2-16.4-6.3-24.5L96.2,46.9z M130.4,76.3c3.9-11.3,6.6-22,8.3-32.1
		c8.4,2.4,12.7,4.6,12.7,6.7c0,1.3-1.8,2.1-5.4,2.6c-4.5,10.1-8.5,18.1-12,24.2L130.4,76.3z"/>
</g>
</svg>
