<?xml version="1.0" encoding="utf-8"?>
<!-- Generator: Adobe Illustrator 19.0.0, SVG Export Plug-In . SVG Version: 6.00 Build 0)  -->
<svg version="1.1" id="圖層_1" xmlns="http://www.w3.org/2000/svg" xmlns:xlink="http://www.w3.org/1999/xlink" x="0px" y="0px"
	 viewBox="45 -33.8 150 150" style="enable-background:new 45 -33.8 150 150;" xml:space="preserve">
<style type="text/css">
	.st0{enable-background:new    ;}
</style>
<g class="st0">
	<path d="M124.6-21.6c18.2,20.9,40.2,37.4,66,49.5c-3,2.7-5.3,5.8-6.7,9.2c-25.5-14.8-46-33.2-61.5-55.1
		C106.4,8.7,84.3,29.1,56,43.2L53.6,40c27.1-15.9,48.6-39.3,64.5-70.2c8.8,2.1,13.2,4.1,13.2,6C131.3-22.9,129.1-22.1,124.6-21.6z
		 M124.9,25.6v22.8H160l7.4-9.6c4.1,3.6,7.6,7.1,10.5,10.3l-1.7,3h-51.3v43.7h39.6l8.2-10.4l2.7,2.7c2.8,2.8,5.3,5.6,7.5,8.6
		l-1.8,2.9H60.6l-1.8-3.7H116V52.1H66.7L65,48.4h51V25.6H91.6l-1.5-3.7h47.2l6.9-8.3c2.9,2.4,6.2,5.6,9.9,9.4l-1.5,2.6H124.9z
		 M79,58c13.2,8.3,19.8,16.4,19.8,24.5c0,4.3-1.8,6.4-5.4,6.4c-2.6,0-4.3-2.1-5.1-6.3c-1.2-6.8-5-14.2-11.6-22L79,58z M139.6,89.6
		c5.3-8.8,10.1-19.5,14.4-32.2c8.6,3.6,12.9,6.5,12.9,8.6c0,1.2-2.1,1.9-6.2,2.1c-5.4,8.5-11.4,16.4-18.2,23.5L139.6,89.6z"/>
</g>
</svg>
