<?xml version="1.0" encoding="utf-8"?>
<!-- Generator: Adobe Illustrator 19.0.0, SVG Export Plug-In . SVG Version: 6.00 Build 0)  -->
<svg version="1.1" id="圖層_1" xmlns="http://www.w3.org/2000/svg" xmlns:xlink="http://www.w3.org/1999/xlink" x="0px" y="0px"
	 viewBox="45 -33.8 150 150" style="enable-background:new 45 -33.8 150 150;" xml:space="preserve">
<style type="text/css">
	.st0{enable-background:new    ;}
</style>
<g class="st0">
	<path d="M123.3,34.7v2.1c4,1.4,8.4,3.2,13.5,5.6c4.5-5.6,8.7-12.2,12.5-20c7.4,4.1,11.1,7.1,11.1,9c0,1.1-1.2,1.7-3.6,1.7
		c-1.2,0-2.2,0-3-0.1c-3.9,3.9-8.3,7.6-13,11.4c12.9,6.8,19.3,12.7,19.3,17.9c0,3.3-1.5,5-4.6,5c-1.4,0-3.4-1.5-5.9-4.6
		c-6.5-8-15.3-15.2-26.3-21.7v64.4h-8.7V42.4c-12.7,10.4-26.3,19-40.6,26.1l-2.5-3.3c29-16.4,51.9-37.3,68.6-62.7H80.9l-1.5-3.7
		h34.2v-27.9c10.3,0,15.4,1.1,15.4,3.3c0,1.2-2.2,2.7-6.7,4.3v20.3h17.6l5.4-7.5c6.8,5.6,10.2,9.2,10.2,10.8c0,0.6-0.5,1.2-1.6,1.6
		l-4.7,1.8C141.7,16,133.1,25.7,123.3,34.7z"/>
</g>
</svg>
