<?xml version="1.0" encoding="utf-8"?>
<!-- Generator: Adobe Illustrator 19.0.0, SVG Export Plug-In . SVG Version: 6.00 Build 0)  -->
<svg version="1.1" id="圖層_1" xmlns="http://www.w3.org/2000/svg" xmlns:xlink="http://www.w3.org/1999/xlink" x="0px" y="0px"
	 viewBox="45 -33.8 150 150" style="enable-background:new 45 -33.8 150 150;" xml:space="preserve">
<style type="text/css">
	.st0{enable-background:new    ;}
</style>
<g class="st0">
	<path d="M75.3,89.4h89l7.5-10.6c3.6,3.9,6.6,7.6,9.2,11.4l-1.8,3H73.6c-1.4,3-2.6,5.3-3.6,7L62.7,98c7.1-13.9,16.4-35.2,28-63.8
		c9.6-23.7,16.7-43.2,21.5-58.4c8.7,1.3,13.1,2.9,13.1,4.8c0,1.2-2.3,2.4-7,3.6c-4.4,13.2-11,30.6-19.8,52.2
		C90.3,56.5,82.6,74.1,75.3,89.4z"/>
</g>
</svg>
