<?xml version="1.0" encoding="utf-8"?>
<!-- Generator: Adobe Illustrator 19.0.0, SVG Export Plug-In . SVG Version: 6.00 Build 0)  -->
<svg version="1.1" id="圖層_1" xmlns="http://www.w3.org/2000/svg" xmlns:xlink="http://www.w3.org/1999/xlink" x="0px" y="0px"
	 viewBox="45 -33.8 150 150" style="enable-background:new 45 -33.8 150 150;" xml:space="preserve">
<style type="text/css">
	.st0{enable-background:new    ;}
</style>
<g class="st0">
	<path d="M66.5,90c7.2-15.4,15.3-34,24.1-55.7c9.6-23.7,16.7-43.2,21.5-58.4c8.7,1.3,13.1,2.9,13.1,4.8c0,1.2-2.3,2.4-7,3.6
		c-4.4,13.2-11,30.6-19.8,52.2C90.4,56.4,82.7,74,75.5,89.2C121.1,84.7,156,79,180.3,71.9l1,3.1c-23.9,8.8-61.1,16.7-111.6,23.5
		c-0.7,4.2-1.7,6.3-3,6.3c-2.1,0-4.6-4.7-7.5-14.2C61.7,90.5,64.1,90.2,66.5,90z"/>
</g>
</svg>
