<?xml version="1.0" encoding="utf-8"?>
<!-- Generator: Adobe Illustrator 19.0.0, SVG Export Plug-In . SVG Version: 6.00 Build 0)  -->
<svg version="1.1" id="圖層_1" xmlns="http://www.w3.org/2000/svg" xmlns:xlink="http://www.w3.org/1999/xlink" x="0px" y="0px"
	 viewBox="45 -33.8 150 150" style="enable-background:new 45 -33.8 150 150;" xml:space="preserve">
<style type="text/css">
	.st0{enable-background:new    ;}
</style>
<g class="st0">
	<path d="M156-10.6H63.1l-1.5-3.7h93.6l6.3-7.8c7,5.6,10.5,9.2,10.5,10.8c0,0.7-0.6,1.3-1.8,1.9l-4.3,2.2
		c-11.7,54-47.1,89.3-106.1,106.1L57,95.7C112.8,75.9,145.8,40.5,156-10.6z M134.2,46.2c7.5,5.3,16.5,12.6,27,21.9
		C173.7,79.6,180,87.6,180,92.3c0,4.3-1.8,6.4-5.3,6.4c-1.6,0-3.8-1.8-6.4-5.5c-9.7-12.5-23-25.7-39.8-39.6
		c-18.8-15.3-36.2-27.2-52.1-35.7l2-3.7C95.1,20.5,113.7,31.2,134.2,46.2z"/>
</g>
</svg>
