<?xml version="1.0" encoding="utf-8"?>
<!-- Generator: Adobe Illustrator 19.0.0, SVG Export Plug-In . SVG Version: 6.00 Build 0)  -->
<svg version="1.1" id="圖層_1" xmlns="http://www.w3.org/2000/svg" xmlns:xlink="http://www.w3.org/1999/xlink" x="0px" y="0px"
	 viewBox="45 -33.8 150 150" style="enable-background:new 45 -33.8 150 150;" xml:space="preserve">
<style type="text/css">
	.st0{enable-background:new    ;}
</style>
<g class="st0">
	<path d="M80.9-9.8H63l-1.5-3.7h87.7l6.3-7.8c7,5.6,10.5,9.2,10.5,10.8c0,0.7-0.6,1.3-1.8,1.9l-4.5,2.3
		c-7.3,24.5-18.1,45.8-32.4,63.9c15.6,14.1,35.5,25,59.7,32.7c-3.6,3.1-6.1,6.4-7.7,10c-23.7-9.8-42.8-21.8-57.3-36
		c-17.4,18.1-39.5,31.2-66.4,39.1l-2.3-3.6c24.1-9.1,44.8-23.2,62.3-42.5C100.4,39.6,88.8,17.3,80.9-9.8z M86.1-9.8
		c8.4,24.5,20.1,44.8,34.9,60.7c12.7-16.3,22.5-36.5,29.2-60.7H86.1z"/>
</g>
</svg>
