<?xml version="1.0" encoding="utf-8"?>
<!-- Generator: Adobe Illustrator 19.0.0, SVG Export Plug-In . SVG Version: 6.00 Build 0)  -->
<svg version="1.1" id="圖層_1" xmlns="http://www.w3.org/2000/svg" xmlns:xlink="http://www.w3.org/1999/xlink" x="0px" y="0px"
	 viewBox="45 -33.8 150 150" style="enable-background:new 45 -33.8 150 150;" xml:space="preserve">
<style type="text/css">
	.st0{enable-background:new    ;}
</style>
<g class="st0">
	<path d="M120.2,52.4c13.2-17.3,23.2-38.1,30-62.3H63l-1.5-3.7h87.7l6.3-7.8c7,5.6,10.5,9.2,10.5,10.8c0,0.7-0.6,1.3-1.8,1.9
		l-4.5,2.3c-7.3,24.5-18.4,46.3-33.1,65.5c16.1,13.1,36.3,23.5,60.4,31.1c-3.6,3.1-6.1,6.4-7.7,10c-23.7-9.8-43.1-21.3-58-34.4
		c-16.9,17.1-38.8,29.6-65.7,37.6l-2.3-3.6c24.1-9.1,44.6-22.7,61.5-40.9C100.4,42.5,89.6,24,82.4,3.6l4.8-2.2
		C94.9,20.2,105.9,37.2,120.2,52.4z"/>
</g>
</svg>
