<?xml version="1.0" encoding="utf-8"?>
<!-- Generator: Adobe Illustrator 19.0.0, SVG Export Plug-In . SVG Version: 6.00 Build 0)  -->
<svg version="1.1" id="圖層_1" xmlns="http://www.w3.org/2000/svg" xmlns:xlink="http://www.w3.org/1999/xlink" x="0px" y="0px"
	 viewBox="45 -33.8 150 150" style="enable-background:new 45 -33.8 150 150;" xml:space="preserve">
<style type="text/css">
	.st0{enable-background:new    ;}
</style>
<g class="st0">
	<path d="M73-2V98.2h-8.6V-10.6c3.5,1.5,6.9,3.1,10,4.8h91.4l5.8-7c6.4,4.6,9.7,7.7,9.7,9.4c0,0.6-0.4,1.1-1.2,1.6l-3.9,2.6V97h-8.6
		V-2H73z M83.6,41.2L82,37.5h60.3l6.7-8.1c3.8,3,6.9,6,9.4,9l-1.6,2.9H83.6z M83.6,86.2L82,82.4h60.3l6.7-8.1c3.8,3,6.9,6,9.4,9
		l-1.6,2.9H83.6z"/>
</g>
</svg>
