<?xml version="1.0" encoding="utf-8"?>
<!-- Generator: Adobe Illustrator 19.0.0, SVG Export Plug-In . SVG Version: 6.00 Build 0)  -->
<svg version="1.1" id="圖層_1" xmlns="http://www.w3.org/2000/svg" xmlns:xlink="http://www.w3.org/1999/xlink" x="0px" y="0px"
	 viewBox="45 -33.8 150 150" style="enable-background:new 45 -33.8 150 150;" xml:space="preserve">
<style type="text/css">
	.st0{enable-background:new    ;}
</style>
<g class="st0">
	<path d="M175.8,13.3c-5.4,19.8-15.5,38.4-30.5,55.8c23.5,11.2,35.3,20,35.3,26.4c0,3.3-1.5,5-4.5,5c-1.4,0-4.3-1.9-8.7-5.7
		c-7.2-6.2-16.7-12.6-28.6-19.5c-18.1,15.4-44.3,24.7-78.7,28.1L58,99.7c31.9-4.6,56.5-14.1,73.7-28.6c-17-8.7-31.5-15.2-43.4-19.5
		c-2,3.8-4.3,8.3-7.2,13.5l-8.3-3c8-13.7,15.8-30,23.6-48.8l1.3-3.1H58.3l-2.1-3.7h43.1c5.2-13.7,9.4-25.8,12.6-36.5
		c9.3,1.7,13.9,3.5,13.9,5.6c0,1.4-2.3,2.6-7,3.6c-3.2,10.1-6.5,19.2-9.9,27.3h57.3l6.2-7.6c6.5,5.3,9.7,8.6,9.7,10
		c0,0.7-0.5,1.3-1.4,1.8L175.8,13.3z M107.3,10.3c-4.9,12.2-10.6,24.8-17.1,37.8c11.8,3.5,27.7,9.3,47.6,17.5
		c14.9-17.5,24.7-36,29.4-55.3H107.3z"/>
</g>
</svg>
