<?xml version="1.0" encoding="utf-8"?>
<!-- Generator: Adobe Illustrator 19.0.0, SVG Export Plug-In . SVG Version: 6.00 Build 0)  -->
<svg version="1.1" id="圖層_1" xmlns="http://www.w3.org/2000/svg" xmlns:xlink="http://www.w3.org/1999/xlink" x="0px" y="0px"
	 viewBox="45 -33.8 150 150" style="enable-background:new 45 -33.8 150 150;" xml:space="preserve">
<style type="text/css">
	.st0{enable-background:new    ;}
</style>
<g class="st0">
	<path d="M134,65.2c29.1,13,43.7,23.1,43.7,30.2c0,3.3-1.5,5-4.5,5c-1.4,0-4.3-1.9-8.7-5.7c-8.4-7.2-20.1-14.9-34.9-23.1
		C115.3,89,91,99.6,56.9,103.3L55,99.7c31.2-5.3,53.4-16,66.7-32.3C109.5,61.3,97.4,56,85.2,51.7c-2,3.8-4.3,8.3-7.2,13.5l-8.3-3
		c8-13.7,15.8-30,23.6-48.8l1.3-3.1H55.3l-2.1-3.7h43.1c5.2-13.7,9.4-25.8,12.6-36.5c9.3,1.7,13.9,3.5,13.9,5.6c0,1.4-2.3,2.6-7,3.6
		c-3.2,10.1-6.5,19.2-9.9,27.3h61.7L176-4.9c4.5,4.5,8.2,8.6,11,12.2l-1.7,3h-29.5C151.3,31.3,144.1,49.6,134,65.2z M125.9,61.7
		c9.3-14.9,16-32.1,20-51.4h-41.6c-4.9,12.2-10.6,24.8-17.1,37.8C99,51.6,111.9,56.1,125.9,61.7z"/>
</g>
</svg>
