<?xml version="1.0" encoding="utf-8"?>
<!-- Generator: Adobe Illustrator 19.0.0, SVG Export Plug-In . SVG Version: 6.00 Build 0)  -->
<svg version="1.1" id="圖層_1" xmlns="http://www.w3.org/2000/svg" xmlns:xlink="http://www.w3.org/1999/xlink" x="0px" y="0px"
	 viewBox="45 -33.8 150 150" style="enable-background:new 45 -33.8 150 150;" xml:space="preserve">
<style type="text/css">
	.st0{enable-background:new    ;}
</style>
<g class="st0">
	<path d="M115.4,52.9c-13.8-17.1-25.3-39.3-34.5-66.5l4-2.1c10.2,25.8,22,46.6,35.5,62.3c12.1-16.5,21.6-38.5,28.7-66
		c10.1,3.5,15.1,6.3,15.1,8.3c0,1.5-2.4,2.4-7.2,2.9c-7.8,24.5-18,44.9-30.6,61.2c16.4,16,36.3,27.6,59.9,34.6
		c-2.9,2.2-5.6,5.3-8,9.3c-23.9-9.5-42.8-21.8-56.8-37.1c-16.1,18.7-38.1,32.3-65.8,40.8l-2.3-3.6C78.2,87.5,98.8,72.8,115.4,52.9z"
		/>
</g>
</svg>
