<?xml version="1.0" encoding="utf-8"?>
<!-- Generator: Adobe Illustrator 19.0.0, SVG Export Plug-In . SVG Version: 6.00 Build 0)  -->
<svg version="1.1" id="圖層_1" xmlns="http://www.w3.org/2000/svg" xmlns:xlink="http://www.w3.org/1999/xlink" x="0px" y="0px"
	 viewBox="45 -33.8 150 150" style="enable-background:new 45 -33.8 150 150;" xml:space="preserve">
<style type="text/css">
	.st0{enable-background:new    ;}
</style>
<g class="st0">
	<path d="M132.9,39.2c19.2,16.4,33.7,32.1,43.4,46.9c2,3.5,2.9,6.4,2.9,8.7c0,2.9-1.5,4.3-4.5,4.3c-2.5,0-4.3-1.2-5.4-3.7
		c-8.6-15.2-22.5-31.8-41.7-49.7c-18.2,22-41.9,39.9-71,53.5l-2.3-3.6c26-14.6,48.2-33.3,66.7-56C104.4,24.8,84.3,8.9,60.5-7.9
		l2.3-3.4C87.4,4.2,108.4,19.1,126,33.4c12.4-16.6,21.9-33.7,28.6-51.2c10.1,3.5,15.1,6.3,15.1,8.3c0,1.5-2.4,2.4-7.2,2.9
		C155.3,7.9,145.4,23.1,132.9,39.2z"/>
</g>
</svg>
