<?xml version="1.0" encoding="utf-8"?>
<!-- Generator: Adobe Illustrator 19.0.0, SVG Export Plug-In . SVG Version: 6.00 Build 0)  -->
<svg version="1.1" id="圖層_1" xmlns="http://www.w3.org/2000/svg" xmlns:xlink="http://www.w3.org/1999/xlink" x="0px" y="0px"
	 viewBox="45 -33.8 150 150" style="enable-background:new 45 -33.8 150 150;" xml:space="preserve">
<style type="text/css">
	.st0{enable-background:new    ;}
</style>
<g class="st0">
	<path d="M164.9-12.6H90.2v50.4c0,3.2-0.2,7.9-0.6,14.2c-1.1,11.2-3.6,20.8-7.7,28.8c-4.8,9.6-12.7,17.8-23.7,24.6l-2.7-3.3
		C72.5,88.8,81,67.4,81,37.8v-59c3.4,1.3,7,2.9,10.6,4.8h71.9l6-7.7c6.5,5.2,9.7,8.5,9.7,10c0,0.7-0.5,1.3-1.4,1.9l-4,2.6v99.4
		c0,8.6-5.5,12.9-16.6,12.9c-0.1-2.9-2.2-5.1-6.3-6.4c-2.3-0.8-8.4-2-18.2-3.4v-4.3c8.9,1,17.5,1.5,25.9,1.5c4.1,0,6.2-1.8,6.2-5.4
		V-12.6z"/>
</g>
</svg>
