<?xml version="1.0" encoding="utf-8"?>
<!-- Generator: Adobe Illustrator 19.0.0, SVG Export Plug-In . SVG Version: 6.00 Build 0)  -->
<svg version="1.1" id="圖層_1" xmlns="http://www.w3.org/2000/svg" xmlns:xlink="http://www.w3.org/1999/xlink" x="0px" y="0px"
	 viewBox="45 -33.8 150 150" style="enable-background:new 45 -33.8 150 150;" xml:space="preserve">
<style type="text/css">
	.st0{enable-background:new    ;}
</style>
<g class="st0">
	<path d="M76.8,1.7v103.6H68V1.7H55.4l-1.3-3.7H68V-20c10.6,0.1,15.9,1.4,15.9,3.7c0,1.6-2.3,3.2-7,4.8v9.4H166l6.3-7.8
		c6.4,5.2,9.6,8.5,9.6,9.9c0,0.7-0.5,1.3-1.4,1.9l-4.2,2.7v84.8c0,8.9-5.2,13.3-15.6,13.3c-0.1-3-2.1-5.2-6-6.6
		c-2.7-0.7-8.2-1.8-16.6-3.1v-4c9.4,1,17.5,1.5,24.2,1.5c3.5,0,5.3-1.6,5.3-4.8V1.7H76.8z"/>
</g>
</svg>
