<?xml version="1.0" encoding="utf-8"?>
<!-- Generator: Adobe Illustrator 19.0.0, SVG Export Plug-In . SVG Version: 6.00 Build 0)  -->
<svg version="1.1" id="圖層_1" xmlns="http://www.w3.org/2000/svg" xmlns:xlink="http://www.w3.org/1999/xlink" x="0px" y="0px"
	 viewBox="45 -33.8 150 150" style="enable-background:new 45 -33.8 150 150;" xml:space="preserve">
<style type="text/css">
	.st0{enable-background:new    ;}
</style>
<g class="st0">
	<path d="M76.8-15.8h87.3l5.9-7.2c6.4,5.2,9.6,8.5,9.6,10c0,0.7-0.5,1.4-1.5,1.9l-3.9,2.4v98.8c0,7.6-5.4,11.4-16.2,11.6
		c-0.1-3.1-2.1-5.3-6-6.4c-2.8-1-8.4-2.1-16.9-3.1v-4c9.6,1,17.7,1.5,24.2,1.5c3.9,0,5.9-1.7,5.9-5V-12H75.6v114.3h-9v-123
		C69.7-19.5,73.1-17.8,76.8-15.8z"/>
</g>
</svg>
