<?xml version="1.0" encoding="utf-8"?>
<!-- Generator: Adobe Illustrator 19.0.0, SVG Export Plug-In . SVG Version: 6.00 Build 0)  -->
<svg version="1.1" id="圖層_1" xmlns="http://www.w3.org/2000/svg" xmlns:xlink="http://www.w3.org/1999/xlink" x="0px" y="0px"
	 viewBox="45 -33.8 150 150" style="enable-background:new 45 -33.8 150 150;" xml:space="preserve">
<style type="text/css">
	.st0{enable-background:new    ;}
</style>
<g class="st0">
	<path d="M74.5,22.9l3.7,1v3.6c0,17.7-2.6,31.7-7.9,42c-3.9,7.5-8,11.3-12.3,11.3c-3.6,0-5.4-1.7-5.4-5.1c0-1.9,1.5-4.2,4.6-7
		C66.2,60.4,72,45.2,74.5,22.9z M97.3-24.8c12,4.4,22.1,9.6,30.2,15.6c7,5.2,10.5,10.1,10.5,14.6c0,3.5-1.7,5.3-5.1,5.3
		c-1.7,0-3.7-1.7-6-5c-6.2-9.8-16.5-18.9-31.1-27.5L97.3-24.8z M154.6,60.4v6.7c-0.1,9.7,0.4,15.9,1.5,18.5c0.7,1.7,2.2,2.6,4.3,2.6
		c-0.1,4.7-2.2,7.6-6.3,8.9c-3.2,0.9-12,1.3-26.6,1.3c-16.6,0-26.1-0.9-28.5-2.7C97,94,96,90.9,96,86.5V6.6
		c10.4,0.4,15.6,1.8,15.6,4.2c0,1.4-2.1,2.7-6.4,4.1V84c0,3,0.8,4.8,2.4,5.3c1.6,0.7,7.5,1,17.7,1c10.3,0,16.3-0.4,18.1-1.2
		c3.3-1.7,5.7-11.7,7.3-30.2L154.6,60.4z M152.5,19.5c11.4,9.4,20.3,19,26.7,28.6c4.9,7.1,7.3,13,7.3,17.7c0,4.6-1.9,6.9-5.7,6.9
		c-2.5,0-4.5-2.3-5.9-7c-4.1-14.4-12.4-28.8-25-43.4L152.5,19.5z"/>
</g>
</svg>
