<?xml version="1.0" encoding="utf-8"?>
<!-- Generator: Adobe Illustrator 19.0.0, SVG Export Plug-In . SVG Version: 6.00 Build 0)  -->
<svg version="1.1" id="圖層_1" xmlns="http://www.w3.org/2000/svg" xmlns:xlink="http://www.w3.org/1999/xlink" x="0px" y="0px"
	 viewBox="45 -33.8 150 150" style="enable-background:new 45 -33.8 150 150;" xml:space="preserve">
<style type="text/css">
	.st0{enable-background:new    ;}
</style>
<g class="st0">
	<path d="M111.8,4.4c-4.2,8.3-9,16.1-14.3,23.3C88.2,40.2,76.4,51.3,62.3,61l-2.6-3c24.3-20.2,42.2-47.8,53.5-82.8
		c9.5,2.2,14.3,4.4,14.3,6.6c0,1.6-2.5,2.7-7.4,3.3c-3,7.5-5.2,12.7-6.6,15.6h46.7l6-8c6.8,5.9,10.2,9.7,10.2,11.4
		c0,0.6-0.4,1.2-1.3,1.6l-4.7,2c-12.9,31.2-29,54.4-48.3,69.9c-14,11.1-31.9,20.1-53.7,27l-2.3-3.4c30.8-12.5,54.2-29.3,70.2-50.5
		c9.2-12.3,17.5-27.7,24.7-46.2H111.8z"/>
</g>
</svg>
