<?xml version="1.0" encoding="utf-8"?>
<!-- Generator: Adobe Illustrator 19.0.0, SVG Export Plug-In . SVG Version: 6.00 Build 0)  -->
<svg version="1.1" id="圖層_1" xmlns="http://www.w3.org/2000/svg" xmlns:xlink="http://www.w3.org/1999/xlink" x="0px" y="0px"
	 viewBox="45 -33.8 150 150" style="enable-background:new 45 -33.8 150 150;" xml:space="preserve">
<style type="text/css">
	.st0{enable-background:new    ;}
</style>
<g class="st0">
	<path d="M89.8,19.2c-7.4,14.5-16.4,26.9-27,37.2l-2.9-2.7c15.2-18.8,25.9-42.3,32.1-70.6c10.1,2.2,15.2,4.3,15.2,6.3
		c0,1.3-2.3,2.7-7,4c-2.8,8.5-5.7,15.9-8.6,22h73.7l6.6-8.3c6.8,6.3,10.2,10.3,10.2,11.7c0,0.7-0.6,1.3-1.8,1.8l-4.4,1.7
		c-7.3,11.1-17.2,23.7-29.6,37.9l-3.1-2.4c12.1-16.6,19.7-29.4,22.9-38.7H89.8z"/>
</g>
</svg>
