<?xml version="1.0" encoding="utf-8"?>
<!-- Generator: Adobe Illustrator 19.0.0, SVG Export Plug-In . SVG Version: 6.00 Build 0)  -->
<svg version="1.1" id="圖層_1" xmlns="http://www.w3.org/2000/svg" xmlns:xlink="http://www.w3.org/1999/xlink" x="0px" y="0px"
	 viewBox="45 -33.8 150 150" style="enable-background:new 45 -33.8 150 150;" xml:space="preserve">
<style type="text/css">
	.st0{enable-background:new    ;}
</style>
<g class="st0">
	<path d="M115.4,52.7c-11.4,2.6-24.3,5.2-38.8,7.8c-0.5,4.1-1.4,6.2-2.9,6.2c-2.1,0-4.7-4.6-7.8-13.8c16.1-2,32.7-4.6,50-7.8V7.1
		H67.4l-1.7-3.7h50.1v-32.6c10.2,0.3,15.3,1.5,15.3,3.6c0,1.1-2.1,2.5-6.2,4.2V3.3h29.5l7.7-10.6c4.8,4.8,8.3,8.6,10.5,11.5L171,7.1
		H125v36.2c16.9-3.3,33.3-6.9,49.2-11l0.7,3.7c-15.3,5.4-32.1,10.2-50.4,14.6v42c0,7.8-5.4,11.7-16.2,11.9c-0.1-3.2-1.8-5.4-5-6.6
		c-2.5-1-7.5-2.1-15.1-3.1v-4.3c10.4,1.2,17.7,1.8,21.7,1.8c3.6,0,5.4-1.7,5.4-5.1V52.7z"/>
</g>
</svg>
