<?xml version="1.0" encoding="utf-8"?>
<!-- Generator: Adobe Illustrator 19.0.0, SVG Export Plug-In . SVG Version: 6.00 Build 0)  -->
<svg version="1.1" id="圖層_1" xmlns="http://www.w3.org/2000/svg" xmlns:xlink="http://www.w3.org/1999/xlink" x="0px" y="0px"
	 viewBox="45 -33.8 150 150" style="enable-background:new 45 -33.8 150 150;" xml:space="preserve">
<style type="text/css">
	.st0{enable-background:new    ;}
</style>
<g class="st0">
	<path d="M114.7,14.8v-26.6c11,0,16.5,1.2,16.5,3.7c0,1.5-2.4,3-7.3,4.6v18.3h46.2l6.7-7.8c7.7,7.4,11.6,12.3,11.6,14.7
		c0,1.1-0.7,1.7-2,1.8l-6,0.9c-4.5,5.4-10.2,11-17.2,16.8l-2.9-2.4c4.6-6.9,8.1-13.6,10.3-20.2H71.1c-0.3,8.3-1.5,14.6-3.6,18.8
		c-2.5,5.2-5.5,7.8-9,7.8c-1.4,0-2.6-0.5-3.7-1.5c-1.4-1.3-2.1-2.6-2.1-4c0-1.5,0.9-3.1,2.7-4.8C62,29.2,65.7,20.5,66.5,9l3.9,0.7
		c0,0.8,0.1,1.8,0.3,2.9c0.1,1.1,0.2,1.8,0.3,2.2H114.7z"/>
</g>
</svg>
