<?xml version="1.0" encoding="utf-8"?>
<!-- Generator: Adobe Illustrator 19.0.0, SVG Export Plug-In . SVG Version: 6.00 Build 0)  -->
<svg version="1.1" id="圖層_1" xmlns="http://www.w3.org/2000/svg" xmlns:xlink="http://www.w3.org/1999/xlink" x="0px" y="0px"
	 viewBox="45 -33.8 150 150" style="enable-background:new 45 -33.8 150 150;" xml:space="preserve">
<style type="text/css">
	.st0{enable-background:new    ;}
</style>
<g class="st0">
	<path d="M57.6,4.3C72.7,19,84.4,33.9,92.5,49.1c4.2,8.1,6.3,14.6,6.3,19.6c0,4.9-1.9,7.3-5.6,7.3c-2.5,0-4.5-3-6-8.9
		C82.9,49.5,72.1,29.5,54.7,7L57.6,4.3z M135.3,80c13-19,24.8-45.9,35.2-80.6c10.2,2.7,15.3,5.2,15.3,7.5c0,1.4-2.2,2.4-6.7,3
		C167,41.8,153.4,66,138.3,82.4L135.3,80z"/>
</g>
</svg>
