<?xml version="1.0" encoding="utf-8"?>
<!-- Generator: Adobe Illustrator 19.0.0, SVG Export Plug-In . SVG Version: 6.00 Build 0)  -->
<svg version="1.1" id="圖層_1" xmlns="http://www.w3.org/2000/svg" xmlns:xlink="http://www.w3.org/1999/xlink" x="0px" y="0px"
	 viewBox="45 -33.8 150 150" style="enable-background:new 45 -33.8 150 150;" xml:space="preserve">
<style type="text/css">
	.st0{enable-background:new    ;}
</style>
<g class="st0">
	<path d="M128.7,58.4c10.7-10.1,20-22,27.9-35.8c7.6,4.3,11.4,7.6,11.4,9.9c0,1.2-1.1,1.8-3.4,1.8c-0.5,0-1.7-0.1-3.4-0.3
		c-7.8,11.1-17,21.5-27.6,31.1c5.1,7.5,12.3,14.2,21.6,20.2c5.2,3.4,8.8,5.1,10.9,5.1c3.2,0,6.3-8.2,9.3-24.6l0.7-3.7l3.9,1.9
		c-1.2,10.6-1.8,18-1.8,22.2c0,5.8,1.7,9,5,9.7c-1.7,4.6-4.3,7-8,7c-4.1,0-9.1-1.4-15-4.2c-13.3-6.3-24.4-15.6-33.1-27.8
		c-16.2,12.6-37.6,22.3-64.1,29l-2.1-3.6c23.4-7.4,43.8-18.1,61.3-32.2c-6.7-12.3-11.5-27.1-14.4-44.4l-46.9,5.1l-1.7-4.1l48-5.1
		c-1.3-11.1-1.9-21.2-1.9-30.3v-11.1c10.2,0.4,15.3,1.8,15.3,4c0,1.4-2.1,2.9-6.3,4.3v2.6c0,10.1,0.6,20,1.8,29.6l47.6-5l6.6-11.4
		c0.3,0.3,1.3,1.1,3.1,2.6c2.2,1.9,4.9,4.5,8.2,8l-1.2,3l-63.9,6.9C118.7,33.6,122.8,46.8,128.7,58.4z M131.1-19.2
		c8.1,2.2,14.5,5.1,19.2,8.5c4.5,3.3,6.7,6.5,6.7,9.6c0,4-1.8,6-5.3,6c-2,0-3.4-1-4.5-3.1c-3.4-6.9-9.3-12.9-17.7-17.9L131.1-19.2z"
		/>
</g>
</svg>
