<?xml version="1.0" encoding="utf-8"?>
<!-- Generator: Adobe Illustrator 19.0.0, SVG Export Plug-In . SVG Version: 6.00 Build 0)  -->
<svg version="1.1" id="圖層_1" xmlns="http://www.w3.org/2000/svg" xmlns:xlink="http://www.w3.org/1999/xlink" x="0px" y="0px"
	 viewBox="45 -33.8 150 150" style="enable-background:new 45 -33.8 150 150;" xml:space="preserve">
<style type="text/css">
	.st0{enable-background:new    ;}
</style>
<g class="st0">
	<path d="M93.5-0.2h30.3v-29.1c9.9,0.3,14.9,1.4,14.9,3.4c0,1.2-2.1,2.7-6.3,4.3v21.3h36.8l7.5-9c4.1,3.8,7.5,7.1,10,10l-1.5,2.7
		H92.6v30.3c0,30-14.8,53.5-32.4,70.5l-2.9-2.6c11.6-15.1,24.2-33.2,25.8-54.3C77,53.8,65.5,58.7,60.6,62.4
		c-0.1,4.2-0.9,6.3-2.1,6.3c-1.9,0-4.4-4.1-7.6-12.2c10-4.4,24.8-9.3,32.5-14.7c0.2-4.2,0.4-7.5,0.4-10V-4.5
		C87.5-3.1,90.7-1.6,93.5-0.2z M57.5,2.2c10.2,8.3,15.7,15.9,18.3,23.7c1.3,3.9-1.8,8.2-5.4,8.2c-2.5,0-3.3-4.2-4.5-8.3
		c-2-6.7-6.4-14.1-10.9-21.3L57.5,2.2z"/>
</g>
</svg>
