<?xml version="1.0" encoding="utf-8"?>
<!-- Generator: Adobe Illustrator 19.0.0, SVG Export Plug-In . SVG Version: 6.00 Build 0)  -->
<svg version="1.1" id="圖層_1" xmlns="http://www.w3.org/2000/svg" xmlns:xlink="http://www.w3.org/1999/xlink" x="0px" y="0px"
	 viewBox="45 -33.8 150 150" style="enable-background:new 45 -33.8 150 150;" xml:space="preserve">
<style type="text/css">
	.st0{enable-background:new    ;}
</style>
<g class="st0">
	<path d="M125.6,29.6v59.6c0,9.4-5.7,14.1-17.2,13.9c-0.2-2.9-1.8-4.9-4.7-6.2c-3.2-1.2-10.4-2.7-21.8-4.5v-4.2
		c10.8,1.3,20.1,1.9,27.9,1.9c4,0,6-1.6,6-4.8V31.2c-16.2,2.6-32.6,4.8-49.3,6.6c-0.7,4.2-1.7,6.3-3,6.3c-2.1,0-4.6-4.7-7.5-14.2
		c20.3-1,40.2-2.6,59.8-4.8v-51.3c11.1,0.4,16.6,1.7,16.6,3.9c0,1.3-2.3,2.7-6.9,4.4v41.9c19.4-2.5,38.5-5.6,57.3-9.3l1,3.1
		C164.8,22.2,145.4,26.2,125.6,29.6z"/>
</g>
</svg>
