<?xml version="1.0" encoding="utf-8"?>
<!-- Generator: Adobe Illustrator 19.0.0, SVG Export Plug-In . SVG Version: 6.00 Build 0)  -->
<svg version="1.1" id="圖層_1" xmlns="http://www.w3.org/2000/svg" xmlns:xlink="http://www.w3.org/1999/xlink" x="0px" y="0px"
	 viewBox="45 -33.8 150 150" style="enable-background:new 45 -33.8 150 150;" xml:space="preserve">
<style type="text/css">
	.st0{enable-background:new    ;}
</style>
<g class="st0">
	<path d="M125.6,25.5v63.7c0,9.4-5.7,14.1-17.2,13.9c-0.2-2.9-1.8-4.9-4.7-6.2c-3.2-1.2-10.4-2.7-21.8-4.5v-4.2
		c10.8,1.3,20.1,1.9,27.9,1.9c4,0,6-1.6,6-4.8v-60H57.9l-1.5-3.7h59.4v-48c11.1,0.4,16.6,1.7,16.6,3.9c0,1.3-2.3,2.7-6.9,4.4v39.8
		h39.3l7.8-11c3.1,3,6.5,6.9,10.2,11.7l-1.6,3H125.6z"/>
</g>
</svg>
