<?xml version="1.0" encoding="utf-8"?>
<!-- Generator: Adobe Illustrator 19.0.0, SVG Export Plug-In . SVG Version: 6.00 Build 0)  -->
<svg version="1.1" id="圖層_1" xmlns="http://www.w3.org/2000/svg" xmlns:xlink="http://www.w3.org/1999/xlink" x="0px" y="0px"
	 viewBox="45 -33.8 150 150" style="enable-background:new 45 -33.8 150 150;" xml:space="preserve">
<style type="text/css">
	.st0{enable-background:new    ;}
</style>
<g class="st0">
	<path d="M55.8,55.6l-1.5-3.7h31.9l7.9-8.6c3.7,3.2,6.7,6.2,9,9.1l-1.8,3.3H55.8z M57.1,19.8L55.5,16h31.1l7.8-8.8
		c3.6,3.3,6.5,6.3,8.7,9.2l-1.7,3.3H57.1z M116.2,79.5v-95.1c11.1,0.5,16.6,1.9,16.6,4.2c0,1.4-2.4,3-7.2,4.6v86.2H116.2z
		 M139.4,19.8l-1.9-3.7h31l7.9-8.6c3.5,2.8,6.5,5.7,9.2,8.6l-1.6,3.7H139.4z M139.3,55.6l-1.8-3.7h31.9l8.1-9.7
		c3.9,3.6,7.1,6.9,9.6,10.1l-1.8,3.3H139.3z"/>
</g>
</svg>
