<?xml version="1.0" encoding="utf-8"?>
<!-- Generator: Adobe Illustrator 19.0.0, SVG Export Plug-In . SVG Version: 6.00 Build 0)  -->
<svg version="1.1" id="圖層_1" xmlns="http://www.w3.org/2000/svg" xmlns:xlink="http://www.w3.org/1999/xlink" x="0px" y="0px"
	 viewBox="45 -33.8 150 150" style="enable-background:new 45 -33.8 150 150;" xml:space="preserve">
<style type="text/css">
	.st0{enable-background:new    ;}
</style>
<g class="st0">
	<path d="M89.9,30.4h36.4l6.7-8.1c3.8,3,6.9,6,9.4,9l-1.6,2.9H89.1C87,43.9,84.8,53.6,82.3,63h38.9l6.7-8.1c3.8,3,6.9,6,9.4,9
		l-1.6,2.9H81.4C80,72,78.6,77.2,77.1,82.4l-9-2.3c8.6-28.9,16-63.5,22.2-103.9c9.9,0.7,14.8,2.3,14.8,4.8c0,1.7-2.3,3.2-7,4.5
		c-0.5,4-1.2,8.8-2.1,14.5h58.6l6.2-7.3c6.3,5.1,9.4,8.4,9.4,10c0,0.7-0.4,1.3-1.2,1.8l-4.7,2.9c-2.9,27.3-7.8,57.9-14.7,91.6
		l-8.9-2c7.8-34.2,12.8-65.3,15-93.2H95.2C93.6,12.7,91.8,21.6,89.9,30.4z"/>
</g>
</svg>
