<?xml version="1.0" encoding="utf-8"?>
<!-- Generator: Adobe Illustrator 19.0.0, SVG Export Plug-In . SVG Version: 6.00 Build 0)  -->
<svg version="1.1" id="圖層_1" xmlns="http://www.w3.org/2000/svg" xmlns:xlink="http://www.w3.org/1999/xlink" x="0px" y="0px"
	 viewBox="45 -33.8 150 150" style="enable-background:new 45 -33.8 150 150;" xml:space="preserve">
<style type="text/css">
	.st0{enable-background:new    ;}
</style>
<g class="st0">
	<path d="M104.5,18.9c-1.9,3-3.9,6-6,8.8C89.2,40.2,77.4,51.3,63.3,61l-2.6-3c24.3-20.2,42.2-47.8,53.5-82.8
		c9.5,2.2,14.3,4.4,14.3,6.6c0,1.6-2.5,2.7-7.4,3.3c-3,7.5-5.2,12.7-6.6,15.6h46.7l6-8c6.8,5.9,10.2,9.7,10.2,11.4
		c0,0.6-0.4,1.2-1.3,1.6l-4.7,2c-12.9,31.2-29,54.4-48.3,69.9c-14,11.1-31.9,20.1-53.7,27l-2.3-3.4c30.8-12.5,54.2-29.3,70.2-50.5
		c9.2-12.3,17.5-27.7,24.7-46.2h-49.3c-1.9,3.8-4,7.5-6.2,11.1c22.5,9.9,33.8,18.8,33.8,26.5c0,3.5-1.7,5.3-5,5.3
		c-1.7,0-3.5-1.6-5.5-4.8C124.9,33.9,116.4,26,104.5,18.9z M127.7,51.1l1,3.1C114.6,61,98,66.8,79.2,71.8c-0.7,4.2-1.7,6.3-3,6.3
		c-2.1,0-4.6-4.7-7.5-14.2C90.7,61.2,110.4,56.9,127.7,51.1z"/>
</g>
</svg>
