<?xml version="1.0" encoding="utf-8"?>
<!-- Generator: Adobe Illustrator 19.0.0, SVG Export Plug-In . SVG Version: 6.00 Build 0)  -->
<svg version="1.1" id="圖層_1" xmlns="http://www.w3.org/2000/svg" xmlns:xlink="http://www.w3.org/1999/xlink" x="0px" y="0px"
	 viewBox="45 -33.8 150 150" style="enable-background:new 45 -33.8 150 150;" xml:space="preserve">
<style type="text/css">
	.st0{enable-background:new    ;}
</style>
<g class="st0">
	<path d="M81.4,66.6l-9-2.3c7.9-30,13.9-59.4,17.9-88.1c9.9,0.7,14.8,2.3,14.8,4.8c0,1.7-2.3,3.2-7,4.5c-0.5,4-1.2,8.8-2.1,14.5
		h58.6l6.2-7.3c6.3,5.1,9.4,8.4,9.4,10c0,0.7-0.4,1.3-1.2,1.8l-4.7,2.9c-2.9,27.3-7.8,57.9-14.7,91.6l-8.9-2
		c7.8-34.2,12.8-65.3,15-93.2H95.2C92.4,19.5,87.8,40.4,81.4,66.6z M134.5,75.8c-2,0-4.3-1.2-6.8-3.6c-9.8-8.9-22.7-16-38.7-21.3
		l1.4-3.3c15.9,3.5,29.2,8.1,39.7,13.6c6,3.3,9,6.3,9,9.2C139.1,74,137.6,75.8,134.5,75.8z M141.1,47.6c-2,0-4.3-1.2-6.8-3.6
		c-9.8-8.9-22.7-16-38.7-21.3l1.4-3.3c15.9,3.5,29.2,8.1,39.7,13.6c6,3.3,9,6.3,9,9.2C145.7,45.8,144.1,47.6,141.1,47.6z"/>
</g>
</svg>
