<?xml version="1.0" encoding="utf-8"?>
<!-- Generator: Adobe Illustrator 19.0.0, SVG Export Plug-In . SVG Version: 6.00 Build 0)  -->
<svg version="1.1" id="圖層_1" xmlns="http://www.w3.org/2000/svg" xmlns:xlink="http://www.w3.org/1999/xlink" x="0px" y="0px"
	 viewBox="45 -33.8 150 150" style="enable-background:new 45 -33.8 150 150;" xml:space="preserve">
<style type="text/css">
	.st0{enable-background:new    ;}
</style>
<g class="st0">
	<path d="M61.6,0.7c42.9-5.1,76.2-11.8,99.8-20.3c7.2,4.6,10.8,8,10.8,10.2c0,1.2-1.2,1.8-3.6,1.8c-1.2,0-3.1-0.2-5.6-0.7
		c-33.2,6.2-66.3,10.5-99.5,13L61.6,0.7z M68.8,22.9c17.7,11.5,26.6,21.7,26.6,30.5c0,3.7-1.8,5.6-5.3,5.6c-2.5,0-4.5-2.1-6-6.3
		C80.8,43,75,34,66.6,25.8L68.8,22.9z M136,60.6c13.7-14.4,24.1-32.2,31.2-53.5c10.1,2.7,15.1,5.3,15.1,7.9c0,1.6-2.4,2.6-7.2,2.9
		c-7.8,18-18.8,34.2-33,48.6c-17.8,16.2-40.6,27.6-68.3,34.2l-2.3-3.5C96.2,89.8,117.8,77.6,136,60.6z M105.9,6.9
		C121,18.7,128.5,28.7,128.5,37c0,4-1.8,6-5.4,6c-2.8,0-4.8-2.3-5.9-7c-2.2-9.6-6.9-18.4-14.1-26.6L105.9,6.9z"/>
</g>
</svg>
