<?xml version="1.0" encoding="utf-8"?>
<!-- Generator: Adobe Illustrator 19.0.0, SVG Export Plug-In . SVG Version: 6.00 Build 0)  -->
<svg version="1.1" id="圖層_1" xmlns="http://www.w3.org/2000/svg" xmlns:xlink="http://www.w3.org/1999/xlink" x="0px" y="0px"
	 viewBox="45 -33.8 150 150" style="enable-background:new 45 -33.8 150 150;" xml:space="preserve">
<style type="text/css">
	.st0{enable-background:new    ;}
</style>
<g class="st0">
	<path d="M107.2,14.6c22.9,9.8,34.4,18.6,34.4,26.4c0,3.5-1.7,5.3-5,5.3c-1.7,0-3.5-1.6-5.5-4.8c-5.1-8.7-13.8-16.5-26.1-23.4
		c-4.6,7.3-9.8,14-15.5,20.2c20.4,10.5,30.6,19.6,30.6,27c0,3.4-1.6,5.1-4.8,5.1c-1.7,0-3.4-1.5-5.3-4.6
		c-4.8-8.3-12.6-16.4-23.4-24.2c-7,7.2-14.8,13.7-23.3,19.4l-2.6-3c24.3-20.2,42.2-47.8,53.5-82.8c9.5,2.2,14.3,4.4,14.3,6.6
		c0,1.6-2.5,2.7-7.4,3.3c-3,7.5-5.2,12.7-6.6,15.6h46.7l6-8c6.8,5.9,10.2,9.7,10.2,11.4c0,0.6-0.4,1.2-1.3,1.6l-4.7,2
		c-12.9,31.2-29,54.4-48.3,69.9c-14,11.1-31.9,20.1-53.7,27l-2.3-3.4c30.8-12.5,54.2-29.3,70.2-50.5c9.2-12.3,17.5-27.7,24.7-46.2
		h-49.3C111,7.9,109.2,11.3,107.2,14.6z"/>
</g>
</svg>
