<?xml version="1.0" encoding="utf-8"?>
<!-- Generator: Adobe Illustrator 19.0.0, SVG Export Plug-In . SVG Version: 6.00 Build 0)  -->
<svg version="1.1" id="圖層_1" xmlns="http://www.w3.org/2000/svg" xmlns:xlink="http://www.w3.org/1999/xlink" x="0px" y="0px"
	 viewBox="45 -33.8 150 150" style="enable-background:new 45 -33.8 150 150;" xml:space="preserve">
<style type="text/css">
	.st0{enable-background:new    ;}
</style>
<g class="st0">
	<path d="M93.8,13.6c23.8-2.4,44.8-6.7,63-12.9c7.6,3.7,11.4,6.5,11.4,8.4c0,0.9-1.1,1.3-3.4,1.3c-1.5,0-3.2-0.2-5.3-0.6
		c-23,3.9-45.4,6.6-66.9,8.1h-0.9c-5.8,16.6-15.1,30.5-27.9,42l-2.9-2.9C71.5,44.8,79.4,28.4,84.4,8C87.4,9.5,90.6,11.4,93.8,13.6z
		 M113.3,21.5c11.2,10.9,16.8,20.6,16.8,29c0,4.6-2,6.9-5.9,6.9c-2.7,0-4.2-2.4-4.5-7.2c-0.4-8.1-3.6-17-9.6-26.6L113.3,21.5z
		 M150.3,18.2c21.6,11.3,32.4,21.2,32.4,29.7c0,3.9-1.8,5.9-5.3,5.9c-2,0-3.9-2-5.9-5.9c-4.2-8.8-12-17.8-23.7-27L150.3,18.2z"/>
</g>
</svg>
