<?xml version="1.0" encoding="utf-8"?>
<!-- Generator: Adobe Illustrator 19.0.0, SVG Export Plug-In . SVG Version: 6.00 Build 0)  -->
<svg version="1.1" id="圖層_1" xmlns="http://www.w3.org/2000/svg" xmlns:xlink="http://www.w3.org/1999/xlink" x="0px" y="0px"
	 viewBox="45 -33.8 150 150" style="enable-background:new 45 -33.8 150 150;" xml:space="preserve">
<style type="text/css">
	.st0{enable-background:new    ;}
</style>
<g class="st0">
	<path d="M63.6,12.9C106.5,7.8,139.8,1,163.4-7.4c7.2,4.6,10.8,8,10.8,10.2c0,1.2-1.2,1.8-3.6,1.8c-1.2,0-3.1-0.2-5.6-0.7
		c-33.2,6.2-66.3,10.5-99.5,13L63.6,12.9z M70.8,22.9c17.7,11.5,26.6,21.7,26.6,30.5c0,3.7-1.8,5.6-5.3,5.6c-2.5,0-4.5-2.1-6-6.3
		C82.8,43,77,34,68.6,25.8L70.8,22.9z M109.7,16.3c15.1,11.8,22.6,21.9,22.6,30.2c0,4-1.8,6-5.4,6c-2.8,0-4.8-2.3-5.9-7
		c-2.2-9.6-6.9-18.4-14.1-26.6L109.7,16.3z M141.2,62.5c10-16.4,17.8-32.8,23.5-49.2c9.6,3.9,14.4,7,14.4,9.3c0,1.5-2.1,2.3-6.4,2.4
		c-9.2,15.5-18.6,28.7-28.1,39.6L141.2,62.5z"/>
</g>
</svg>
