<?xml version="1.0" encoding="utf-8"?>
<!-- Generator: Adobe Illustrator 19.0.0, SVG Export Plug-In . SVG Version: 6.00 Build 0)  -->
<svg version="1.1" id="圖層_1" xmlns="http://www.w3.org/2000/svg" xmlns:xlink="http://www.w3.org/1999/xlink" x="0px" y="0px"
	 viewBox="45 -33.8 150 150" style="enable-background:new 45 -33.8 150 150;" xml:space="preserve">
<style type="text/css">
	.st0{enable-background:new    ;}
</style>
<g class="st0">
	<path d="M81.6,25.3v8.4c0,15.8-1.7,29.1-5.1,39.7c-3.9,12.4-10.3,22.8-19.3,31.1l-3-2.1C61,92.4,65.8,82.1,68.5,71.6
		c2.6-10.1,4-22.1,4-36v-19c3.7,1.4,7.4,3,11.1,5h78.7v-32.9H69.3L67.9-15h92.8l5.6-7.2c6.4,5.2,9.7,8.5,9.7,9.9
		c0,0.6-0.4,1.1-1.2,1.6l-3.9,2.6v42.5h-8.6v-9H81.6z"/>
</g>
</svg>
