<?xml version="1.0" encoding="utf-8"?>
<!-- Generator: Adobe Illustrator 19.0.0, SVG Export Plug-In . SVG Version: 6.00 Build 0)  -->
<svg version="1.1" id="圖層_1" xmlns="http://www.w3.org/2000/svg" xmlns:xlink="http://www.w3.org/1999/xlink" x="0px" y="0px"
	 viewBox="45 -33.8 150 150" style="enable-background:new 45 -33.8 150 150;" xml:space="preserve">
<style type="text/css">
	.st0{enable-background:new    ;}
</style>
<g class="st0">
	<path d="M110.6,22.5l-55.2,3.7L53.7,22l56.3-3.4c-1.7-10.5-2.6-21.6-2.6-33.3v-10.5c10.5,0.4,15.7,1.7,15.7,3.9
		c0,1.3-2.1,2.9-6.4,4.8v2.4c0,10.6,0.8,21.4,2.3,32.2l47.6-2.9l6.9-11.6c4.5,3.3,8.6,6.9,12.3,10.8l-1.2,3.1l-65,4.3
		c5.2,23.7,14.2,41.6,27,53.8c9.1,8.5,15.6,12.7,19.5,12.7c3.4,0,6.5-10.3,9.3-30.8l4,2c-1,9.8-1.5,17.1-1.5,21.9
		c0,7.7,1.9,11.7,5.6,12c-0.9,5-3.8,7.5-8.7,7.5c-8.4,0-18.2-4.7-29.5-14.2C128.1,72.1,116.5,50.7,110.6,22.5z"/>
</g>
</svg>
