<?xml version="1.0" encoding="utf-8"?>
<!-- Generator: Adobe Illustrator 19.0.0, SVG Export Plug-In . SVG Version: 6.00 Build 0)  -->
<svg version="1.1" id="圖層_1" xmlns="http://www.w3.org/2000/svg" xmlns:xlink="http://www.w3.org/1999/xlink" x="0px" y="0px"
	 viewBox="45 -33.8 150 150" style="enable-background:new 45 -33.8 150 150;" xml:space="preserve">
<style type="text/css">
	.st0{enable-background:new    ;}
</style>
<g class="st0">
	<path d="M126.8,56.7c4.1,7.3,8.9,13.6,14.4,18.8c9.1,8.5,15.6,12.7,19.5,12.7c3.4,0,6.5-10.3,9.3-30.8l4,2
		c-1,9.8-1.5,17.1-1.5,21.9c0,7.7,1.9,11.7,5.6,12c-0.9,5-3.8,7.5-8.7,7.5c-8.4,0-18.2-4.7-29.5-14.2c-7.9-6.6-14.6-14.7-20.1-24.2
		c-16.3,12.4-36.2,21.4-59.6,27l-2.3-3.5C79.7,79.3,99,69,115.8,55.1c-4.6-9.7-8.2-20.6-10.8-32.9c-2.1-11.6-3.1-23.9-3.1-36.9
		v-10.5c10.5,0.4,15.7,1.7,15.7,3.9c0,1.3-2.1,2.9-6.4,4.8v2.4c0,11.7,0.9,23.4,2.8,35.3c2.2,10.4,5.1,19.6,8.8,27.8
		c13.5-14.4,23.8-32.1,30.8-53.1c10.1,2.7,15.1,5.3,15.1,7.9c0,1.6-2.4,2.6-7.2,2.9c-7.8,18-18.8,34.2-33,48.6
		C127.9,55.7,127.3,56.3,126.8,56.7z"/>
</g>
</svg>
