<?xml version="1.0" encoding="utf-8"?>
<!-- Generator: Adobe Illustrator 19.0.0, SVG Export Plug-In . SVG Version: 6.00 Build 0)  -->
<svg version="1.1" id="圖層_1" xmlns="http://www.w3.org/2000/svg" xmlns:xlink="http://www.w3.org/1999/xlink" x="0px" y="0px"
	 viewBox="45 -33.8 150 150" style="enable-background:new 45 -33.8 150 150;" xml:space="preserve">
<style type="text/css">
	.st0{enable-background:new    ;}
</style>
<g class="st0">
	<path d="M116.1,6.6c-7.2-10.3-16.5-20-27.8-29.2l2.6-2.6c11.9,8.3,22.1,17.9,30.6,28.8c15,18.1,22.5,37.4,22.5,57.9
		c0,12.5-1.5,22.6-4.4,30c-3.1,8.2-9.4,12.2-18.8,12c-0.2-2.9-2.1-5.1-5.6-6.6c-2.6-1.1-8.1-2.5-16.5-4.2v-4
		c8.2,1.5,15.4,2.3,21.5,2.3c5.8,0,9.5-2.1,11.2-6.2c2.5-5.9,3.8-14.5,3.8-25.8C134.5,39.5,128.2,22,116.1,6.6z"/>
</g>
</svg>
