<?xml version="1.0" encoding="utf-8"?>
<!-- Generator: Adobe Illustrator 19.0.0, SVG Export Plug-In . SVG Version: 6.00 Build 0)  -->
<svg version="1.1" id="圖層_1" xmlns="http://www.w3.org/2000/svg" xmlns:xlink="http://www.w3.org/1999/xlink" x="0px" y="0px"
	 viewBox="45 -33.8 150 150" style="enable-background:new 45 -33.8 150 150;" xml:space="preserve">
<style type="text/css">
	.st0{enable-background:new    ;}
</style>
<g class="st0">
	<path d="M159.9-16.1l6.2-7.3c6.6,5.2,9.9,8.6,9.9,10c0,0.8-0.5,1.5-1.5,2.1l-4,2.4V91.6c0,8.6-5.3,12.9-16,12.9
		c-0.1-2.5-1.7-4.3-4.6-5.6c-3.2-1.2-9.4-2.4-18.7-3.6v-4c7.2,0.7,14.9,1,23.3,1c3.3,0,5.3-0.4,6-1.3c0.6-0.8,1-2.1,1-3.9v-99.5
		H62.1l-1.3-3.7H159.9z"/>
</g>
</svg>
