<?xml version="1.0" encoding="utf-8"?>
<!-- Generator: Adobe Illustrator 19.0.0, SVG Export Plug-In . SVG Version: 6.00 Build 0)  -->
<svg version="1.1" id="圖層_1" xmlns="http://www.w3.org/2000/svg" xmlns:xlink="http://www.w3.org/1999/xlink" x="0px" y="0px"
	 viewBox="45 -33.8 150 150" style="enable-background:new 45 -33.8 150 150;" xml:space="preserve">
<style type="text/css">
	.st0{enable-background:new    ;}
</style>
<g class="st0">
	<path d="M163.4-16.1l6.2-7.9c6.6,5.2,9.9,8.7,9.9,10.5c0,0.7-0.4,1.3-1.2,1.8L174-9c-1.6,47.9-7.3,79.5-17,94.9
		c-6.3,10.7-16,16-29.1,16c0-3.1-2.5-5.5-7.4-7.2c-3-1.1-9.5-2.5-19.6-4.2v-4.1c13.9,1.9,24.1,2.9,30.8,2.9c7.1,0,12.9-3,17.2-8.9
		c9.5-15.2,15-46.2,16.3-92.8H64.7L63-16.1H163.4z"/>
</g>
</svg>
