<?xml version="1.0" encoding="utf-8"?>
<!-- Generator: Adobe Illustrator 19.0.0, SVG Export Plug-In . SVG Version: 6.00 Build 0)  -->
<svg version="1.1" id="圖層_1" xmlns="http://www.w3.org/2000/svg" xmlns:xlink="http://www.w3.org/1999/xlink" x="0px" y="0px"
	 viewBox="45 -33.8 150 150" style="enable-background:new 45 -33.8 150 150;" xml:space="preserve">
<style type="text/css">
	.st0{enable-background:new    ;}
</style>
<g class="st0">
	<path d="M93,82.7V-21.6c10.2,0.4,15.3,1.8,15.3,4.1c0,1.3-2.1,2.8-6.3,4.5v95c11.6-1.2,23.1-2.5,34.6-4.1V-22.5
		c10.3,0.4,15.5,2,15.5,4.5c0,1.5-2.1,3-6.4,4.6v89.9c12.6-1.9,25-4.1,37.3-6.5l1,3.1c-37.5,9-76.6,15.7-117.3,20.1
		c-0.7,4.2-1.7,6.3-3,6.3c-2.1,0-4.6-4.7-7.5-14.2C68.5,84.7,80.8,83.9,93,82.7z"/>
</g>
</svg>
