<?xml version="1.0" encoding="utf-8"?>
<!-- Generator: Adobe Illustrator 19.0.0, SVG Export Plug-In . SVG Version: 6.00 Build 0)  -->
<svg version="1.1" id="圖層_1" xmlns="http://www.w3.org/2000/svg" xmlns:xlink="http://www.w3.org/1999/xlink" x="0px" y="0px"
	 viewBox="45 -33.8 150 150" style="enable-background:new 45 -33.8 150 150;" xml:space="preserve">
<style type="text/css">
	.st0{enable-background:new    ;}
</style>
<g class="st0">
	<path d="M125.9,11.5v78.7c0,9.4-5.7,14.1-17.2,13.9c-0.2-2.9-1.8-4.9-4.7-6.2c-3.2-1.2-10.4-2.7-21.8-4.5v-4.2
		c10.8,1.3,20.1,1.9,27.9,1.9c4,0,6-1.6,6-4.8v-75H58.2l-1.5-3.7h59.4v-33c11.1,0.4,16.6,1.7,16.6,3.9c0,1.3-2.3,2.7-6.9,4.4V7.7
		h39.3l7.8-11c3.1,3,6.5,6.9,10.2,11.7l-1.6,3H125.9z"/>
</g>
<path d="M55.8,89.3c13-19,22.3-41,27.9-66C93.9,26,99,28.5,99,30.8c0,1.4-2.2,2.4-6.7,3C85,56,73.8,75.3,58.8,91.7L55.8,89.3z"/>
<path d="M146.4,23.8c14.6,12.7,26,26.7,34.2,41.9c4.2,8.1,6.3,14.6,6.3,19.6c0,4.9-1.9,7.3-5.6,7.3c-2.5,0-4.5-3-6-8.9
	c-4.3-17.6-14.9-36.7-31.8-57.2L146.4,23.8z"/>
</svg>
