<?xml version="1.0" encoding="utf-8"?>
<!-- Generator: Adobe Illustrator 19.0.0, SVG Export Plug-In . SVG Version: 6.00 Build 0)  -->
<svg version="1.1" id="圖層_1" xmlns="http://www.w3.org/2000/svg" xmlns:xlink="http://www.w3.org/1999/xlink" x="0px" y="0px"
	 viewBox="45 -33.8 150 150" style="enable-background:new 45 -33.8 150 150;" xml:space="preserve">
<style type="text/css">
	.st0{enable-background:new    ;}
</style>
<g class="st0">
	<path d="M53.7,88.8c13-19,22.3-41,27.9-66c10.2,2.7,15.3,5.2,15.3,7.5c0,1.4-2.2,2.4-6.7,3C83,55.5,71.8,74.8,56.7,91.2L53.7,88.8z
		 M114.9,8.3H58l-1.2-3.7h58.1v-31c10.5,0.2,15.7,1.5,15.7,4c0,1.4-2.2,2.8-6.7,4.3V4.5h39.9l8.7-11.6c4.1,4.2,7.6,8.4,10.6,12.5
		l-1.7,2.9h-57.6v97h-9V8.3z M144.3,23.3c14.6,12.7,26,26.7,34.2,41.9c4.2,8.1,6.3,14.6,6.3,19.6c0,4.9-1.9,7.3-5.6,7.3
		c-2.5,0-4.5-3-6-8.9c-4.3-17.6-14.9-36.7-31.8-57.2L144.3,23.3z"/>
</g>
</svg>
