<?xml version="1.0" encoding="utf-8"?>
<!-- Generator: Adobe Illustrator 19.0.0, SVG Export Plug-In . SVG Version: 6.00 Build 0)  -->
<svg version="1.1" id="圖層_1" xmlns="http://www.w3.org/2000/svg" xmlns:xlink="http://www.w3.org/1999/xlink" x="0px" y="0px"
	 viewBox="45 -33.8 150 150" style="enable-background:new 45 -33.8 150 150;" xml:space="preserve">
<style type="text/css">
	.st0{enable-background:new    ;}
</style>
<g class="st0">
	<path d="M123.9,20.9v84.4h-9V28c-14.3,25.7-33.7,46.5-58.2,62.3L54,87.2c25.9-20.2,44.8-44,56.8-71.5H58L56.8,12h58.1v-38.4
		c10.5,0.1,15.7,1.4,15.7,3.9c0,1.4-2.2,2.9-6.7,4.3V12h39.9l8.7-11.6c4.7,4.9,8.2,9,10.6,12.5l-1.7,2.9H126
		c14.2,24.7,35.1,44.9,62.5,60.9c-2.9,2.1-5.6,5.2-8.1,9.4C155.8,68.3,137,46.6,123.9,20.9z"/>
</g>
</svg>
