<?xml version="1.0" encoding="utf-8"?>
<!-- Generator: Adobe Illustrator 19.0.0, SVG Export Plug-In . SVG Version: 6.00 Build 0)  -->
<svg version="1.1" id="圖層_1" xmlns="http://www.w3.org/2000/svg" xmlns:xlink="http://www.w3.org/1999/xlink" x="0px" y="0px"
	 viewBox="45 -33.8 150 150" style="enable-background:new 45 -33.8 150 150;" xml:space="preserve">
<style type="text/css">
	.st0{enable-background:new    ;}
</style>
<g class="st0">
	<path d="M67.8,17c21.1,17.3,31.6,31.9,31.6,43.7c0,3.7-1.8,5.6-5.3,5.6c-2.5,0-4.5-2.1-6-6.3c-3.3-12.6-10.8-26-22.6-40.1L67.8,17z
		 M114.7,79.5V-8.2c11.1,0.5,16.6,1.9,16.6,4.2c0,1.4-2.4,3-7.2,4.6v78.9H114.7z M138.2,62.5c10-16.4,17.8-32.8,23.5-49.2
		c9.6,3.9,14.4,7,14.4,9.3c0,1.5-2.1,2.3-6.4,2.4c-9.2,15.5-18.6,28.7-28.1,39.6L138.2,62.5z"/>
</g>
</svg>
