<?xml version="1.0" encoding="utf-8"?>
<!-- Generator: Adobe Illustrator 19.0.0, SVG Export Plug-In . SVG Version: 6.00 Build 0)  -->
<svg version="1.1" id="圖層_1" xmlns="http://www.w3.org/2000/svg" xmlns:xlink="http://www.w3.org/1999/xlink" x="0px" y="0px"
	 viewBox="45 -33.8 150 150" style="enable-background:new 45 -33.8 150 150;" xml:space="preserve">
<style type="text/css">
	.st0{enable-background:new    ;}
</style>
<g class="st0">
	<path d="M66.8,7.5c7.8,10.1,13.8,21,18.1,32.6c2.3,6.3,3.4,11.2,3.4,14.7c0,5-1.9,7.5-5.7,7.5c-2.7,0-4.3-2.8-4.9-8.3
		c-1.4-15-6.1-29.8-14.2-44.6L66.8,7.5z M108.6-2c5.5,9.1,10.3,19.5,14.6,31.1c2.3,8.9,3.4,15.1,3.4,18.6c0,5-1.9,7.5-5.7,7.5
		c-2.7,0-4.3-2.8-4.9-8.3C114.6,29.4,111,13.7,105.3,0L108.6-2z M163.9,0.6c10.3,3.2,15.5,5.8,15.5,7.8c0,1.2-2.3,2-6.8,2.4
		c-7.1,20.2-15.4,39.4-24.8,57.6l-4.5-1.5C151.2,47,158.1,24.9,163.9,0.6z"/>
</g>
</svg>
