<?xml version="1.0" encoding="utf-8"?>
<!-- Generator: Adobe Illustrator 19.0.0, SVG Export Plug-In . SVG Version: 6.00 Build 0)  -->
<svg version="1.1" id="圖層_1" xmlns="http://www.w3.org/2000/svg" xmlns:xlink="http://www.w3.org/1999/xlink" x="0px" y="0px"
	 viewBox="45 -33.8 150 150" style="enable-background:new 45 -33.8 150 150;" xml:space="preserve">
<style type="text/css">
	.st0{enable-background:new    ;}
</style>
<g class="st0">
	<path d="M164.5,80.3l-2,0.4c-26.5,4-56.7,7.7-90.6,11.1c-1,4-2.2,6-3.4,6c-2.2,0-4.5-5-6.7-15c4.7-0.1,10.1-0.3,16.2-0.7l8.6-0.4
		c0.3-0.7,0.7-1.8,1.3-3.1c12-28.5,22.9-61.2,32.7-98.3c10.7,3.5,16,6.3,16,8.6c0,1.5-2.7,2.6-8,3.1c-11.7,34.3-24,64.1-37,89.4
		c31.5-1.7,55.1-3.4,70.8-5.1c-5.3-9.6-13.3-20.3-24-32.1l2.6-2.7c14.8,12,26,24.2,33.6,36.6c4.1,6.8,6.2,12.3,6.2,16.5
		c0,4.4-1.8,6.6-5.3,6.6c-2.1,0-3.9-2.7-5.5-8.1C168.6,88.7,166.8,84.5,164.5,80.3z"/>
</g>
</svg>
