<?xml version="1.0" encoding="utf-8"?>
<!-- Generator: Adobe Illustrator 19.0.0, SVG Export Plug-In . SVG Version: 6.00 Build 0)  -->
<svg version="1.1" id="圖層_1" xmlns="http://www.w3.org/2000/svg" xmlns:xlink="http://www.w3.org/1999/xlink" x="0px" y="0px"
	 viewBox="45 -33.8 150 150" style="enable-background:new 45 -33.8 150 150;" xml:space="preserve">
<style type="text/css">
	.st0{enable-background:new    ;}
</style>
<g class="st0">
	<path d="M81.9-15.8h77.1l5.9-7.2c6.4,5.2,9.6,8.5,9.6,10c0,0.7-0.5,1.4-1.5,1.9L169-8.6v98.9c0,7.5-5.4,11.4-16.2,11.5
		c-0.1-3.1-2.1-5.2-6-6.4c-2.8-1-8.5-2.1-16.9-3.1v-4c9.6,1,17.7,1.5,24.2,1.5c3.9,0,5.9-1.7,5.9-5v-32H80.7v49.6h-9v-123
		C74.8-19.5,78.2-17.8,81.9-15.8z M160-12H80.7v27.6H160V-12z M80.7,49H160V19.3H80.7V49z"/>
</g>
</svg>
