<?xml version="1.0" encoding="utf-8"?>
<!-- Generator: Adobe Illustrator 19.0.0, SVG Export Plug-In . SVG Version: 6.00 Build 0)  -->
<svg version="1.1" id="圖層_1" xmlns="http://www.w3.org/2000/svg" xmlns:xlink="http://www.w3.org/1999/xlink" x="0px" y="0px"
	 viewBox="45 -33.8 150 150" style="enable-background:new 45 -33.8 150 150;" xml:space="preserve">
<style type="text/css">
	.st0{enable-background:new    ;}
</style>
<g class="st0">
	<path d="M83.2-15v115.9h-9.2V-23.2c3.3,1.1,6.9,2.6,10.6,4.5h72.9l6-7c6.2,5,9.3,8.2,9.3,9.6c0,0.5-0.4,1.1-1.2,1.8l-3.7,2.7v100
		c0,7.7-5.5,11.6-16.5,11.7c0.1-2.7-1.3-4.6-4.2-5.7c-2.6-1-8.9-2.2-18.7-3.6v-3.9c9.8,1,18,1.5,24.5,1.5c3.8,0,5.7-1.8,5.7-5.4V-15
		H83.2z M141.1,30.9c-2,0-4.3-1.2-6.8-3.6c-9.8-8.9-22.7-16-38.7-21.3L97,2.7c15.9,3.5,29.2,8.1,39.7,13.6c6,3.3,9,6.3,9,9.2
		C145.7,29.1,144.1,30.9,141.1,30.9z M141.1,65.6c-2,0-4.3-1.2-6.8-3.6c-9.8-8.9-22.7-16-38.7-21.3l1.4-3.3
		c15.9,3.5,29.2,8.1,39.7,13.6c6,3.3,9,6.3,9,9.2C145.7,63.8,144.1,65.6,141.1,65.6z"/>
</g>
</svg>
