<?xml version="1.0" encoding="utf-8"?>
<!-- Generator: Adobe Illustrator 19.0.0, SVG Export Plug-In . SVG Version: 6.00 Build 0)  -->
<svg version="1.1" id="圖層_1" xmlns="http://www.w3.org/2000/svg" xmlns:xlink="http://www.w3.org/1999/xlink" x="0px" y="0px"
	 viewBox="45 -33.8 150 150" style="enable-background:new 45 -33.8 150 150;" xml:space="preserve">
<style type="text/css">
	.st0{enable-background:new    ;}
</style>
<g class="st0">
	<path d="M94.6,14.8H135l7-9.4c3.5,3.5,6.5,6.9,8.9,10.2l-1.7,3H94.6v19.2c0,2.6-0.1,6.1-0.3,10.5H135l7-9.4
		c3.5,3.5,6.4,6.9,8.9,10.2l-1.7,3H94c-1.3,13.4-4.7,24.5-10.2,33.2c-4.9,7.8-12,14.5-21.2,20.2l-2.7-3.3
		c17-13.2,25.5-34.7,25.5-64.3v-59c3.4,1.3,7,2.9,10.6,4.8h60.2l6-7.7c6.5,5.2,9.7,8.5,9.7,10c0,0.7-0.5,1.3-1.4,1.9l-4,2.6v99.4
		c0,8.6-5.5,12.9-16.6,12.9c-0.1-2.9-2.2-5.1-6.3-6.4c-2.3-0.8-8.4-2-18.2-3.4v-4.3c8.9,1,17.5,1.5,25.9,1.5c4.1,0,6.2-1.8,6.2-5.4
		v-97.1h-63V14.8z"/>
</g>
</svg>
