<?xml version="1.0" encoding="utf-8"?>
<!-- Generator: Adobe Illustrator 19.0.0, SVG Export Plug-In . SVG Version: 6.00 Build 0)  -->
<svg version="1.1" id="圖層_1" xmlns="http://www.w3.org/2000/svg" xmlns:xlink="http://www.w3.org/1999/xlink" x="0px" y="0px"
	 viewBox="45 -33.8 150 150" style="enable-background:new 45 -33.8 150 150;" xml:space="preserve">
<style type="text/css">
	.st0{enable-background:new    ;}
</style>
<g class="st0">
	<path d="M98.7,54.1H72.6v13.3h-8.7V-3.8C73.8-3.5,78.8-2.2,78.8,0c0,1.3-2.1,2.7-6.2,4.2v46.2H99c0.1-1.8,0.1-4,0.1-6.4v-63
		c10.2,0.3,15.3,1.6,15.3,4c0,1.2-2.1,2.7-6.2,4.3v54.1c0,17.9-3.4,31.8-10.3,41.5c-6.3,8.9-16.6,15.8-30.9,20.8l-2-3.4
		C78.2,96,87.2,88.1,92.2,78.6C95.8,71.5,98,63.4,98.7,54.1z M140.2,50.4h27V-5.3c9.7,0.6,14.6,2.1,14.6,4.5c0,1.2-1.9,2.7-5.7,4.3
		v62.1h-8.9V54.1h-27v49.2h-8.9V-20.3c10.4,0.5,15.6,1.9,15.6,4.2c0,1.3-2.2,2.8-6.7,4.5V50.4z"/>
</g>
</svg>
