<?xml version="1.0" encoding="utf-8"?>
<!-- Generator: Adobe Illustrator 19.0.0, SVG Export Plug-In . SVG Version: 6.00 Build 0)  -->
<svg version="1.1" id="圖層_1" xmlns="http://www.w3.org/2000/svg" xmlns:xlink="http://www.w3.org/1999/xlink" x="0px" y="0px"
	 viewBox="45 -33.8 150 150" style="enable-background:new 45 -33.8 150 150;" xml:space="preserve">
<style type="text/css">
	.st0{enable-background:new    ;}
</style>
<g class="st0">
	<path d="M63.2-8.7l-1.6-3.7H115l6.5-7.9c6.5,5.3,9.7,8.6,9.7,10c0,0.8-0.5,1.5-1.5,2.1l-3.9,2.4v93.2c0,2.2,0.8,3.6,2.3,4
		c1.2,0.4,7.9,0.6,20.3,0.6c12.6,0,19.7-0.2,21.2-0.7c3.4-1.2,5.6-12.5,6.6-33.8l4,1.7c0,16.4,0.5,25.7,1.4,27.9
		c0.7,1.9,2.5,2.9,5.4,2.9c-0.2,4.7-2,7.5-5.3,8.5c-3.3,1.1-14.6,1.7-33.9,1.7c-18,0-27.9-1.2-29.5-3.6c-1.1-1.6-1.6-4.3-1.6-8.1
		v-97H63.2z"/>
</g>
</svg>
