<?xml version="1.0" encoding="utf-8"?>
<!-- Generator: Adobe Illustrator 19.0.0, SVG Export Plug-In . SVG Version: 6.00 Build 0)  -->
<svg version="1.1" id="圖層_1" xmlns="http://www.w3.org/2000/svg" xmlns:xlink="http://www.w3.org/1999/xlink" x="0px" y="0px"
	 viewBox="45 -33.8 150 150" style="enable-background:new 45 -33.8 150 150;" xml:space="preserve">
<style type="text/css">
	.st0{enable-background:new    ;}
</style>
<g class="st0">
	<path d="M113.6-8.3H63.2L61.6-12h50.8l5.4-7.2c6.4,5.2,9.7,8.5,9.7,9.9c0,0.8-0.5,1.5-1.4,2.1l-3.5,2.4v87.6c0,3.4,1.2,5.3,3.7,5.7
		c3.7,0.8,8.4,1.2,14.1,1.2c8.8,0,20.5-0.6,35.1-1.9c0.6,0,1.4-0.1,2.2-0.2c0.5,0,0.8-0.1,1-0.1c2,0,3.5,0.6,4.8,1.9
		c1.1,1.2,1.7,2.7,1.7,4.5c0,1.3-0.8,2.2-2.5,2.7c-1.1,0.3-3.1,0.6-6.1,0.7c-4.9,0.4-14.5,0.6-28.6,0.6c-16,0-25.5-0.7-28.6-2
		c-3.8-1.5-5.7-5.5-5.7-12.1V-8.3z"/>
</g>
</svg>
