<?xml version="1.0" encoding="utf-8"?>
<!-- Generator: Adobe Illustrator 19.0.0, SVG Export Plug-In . SVG Version: 6.00 Build 0)  -->
<svg version="1.1" id="圖層_1" xmlns="http://www.w3.org/2000/svg" xmlns:xlink="http://www.w3.org/1999/xlink" x="0px" y="0px"
	 viewBox="45 -33.8 150 150" style="enable-background:new 45 -33.8 150 150;" xml:space="preserve">
<style type="text/css">
	.st0{enable-background:new    ;}
</style>
<g class="st0">
	<path d="M136.6-10.3l6.9-7.8c7.5,5.9,11.2,9.8,11.2,11.7c0,0.8-0.7,1.5-2.2,2L147.2-3c-27.7,24.3-50,46.4-66.8,66.1
		c-4.4,5.3-6.6,9.9-6.6,13.8c0,4.9,2.5,7.8,7.6,8.5c8,1.2,20.2,1.8,36.5,1.8c24.2,0,38.2-0.9,41.9-2.6c3.5-1.6,6.2-11,8.1-28.1
		l4,1.5v4.4c0,9.3,0.5,15.3,1.6,17.9c0.9,2.4,2.8,3.7,5.7,3.7c-0.4,5.2-3.1,8.3-8.1,9.4c-7.4,1.6-24.8,2.4-52.2,2.4
		c-25.6,0-40.9-1.1-45.9-3.3c-6.1-2.7-9.2-7.2-9.2-13.5c0-7,4.2-15.4,12.7-25c14-16,34.1-36.2,60.2-60.6H69.2l-1.5-3.7H136.6z"/>
</g>
</svg>
