<?xml version="1.0" encoding="utf-8"?>
<!-- Generator: Adobe Illustrator 19.0.0, SVG Export Plug-In . SVG Version: 6.00 Build 0)  -->
<svg version="1.1" id="圖層_1" xmlns="http://www.w3.org/2000/svg" xmlns:xlink="http://www.w3.org/1999/xlink" x="0px" y="0px"
	 viewBox="45 -33.8 150 150" style="enable-background:new 45 -33.8 150 150;" xml:space="preserve">
<style type="text/css">
	.st0{enable-background:new    ;}
</style>
<g class="st0">
	<path d="M167.2,85.2c1.3,1,2.3,1.5,3,1.5c2.8,0,5.3-10.1,7.4-30.2l4,1.9c-0.7,9.1-1,16.2-1,21.2c0,8.9,2,13.8,6,14.7
		c-1.1,5-3.7,7.5-7.8,7.5c-6.1,0-13.5-4.2-22.3-12.7c-22.7-21.9-34.1-54.8-34.1-98.7v-2.1H58.2l-1.7-3.7h64.6l5.7-6.2
		c6.2,4.4,9.3,7.3,9.3,8.9c0,0.6-0.4,1.1-1.2,1.6l-3.6,2.3C131.5,35.3,143.4,66.7,167.2,85.2z"/>
</g>
</svg>
