<?xml version="1.0" encoding="utf-8"?>
<!-- Generator: Adobe Illustrator 19.0.0, SVG Export Plug-In . SVG Version: 6.00 Build 0)  -->
<svg version="1.1" id="圖層_1" xmlns="http://www.w3.org/2000/svg" xmlns:xlink="http://www.w3.org/1999/xlink" x="0px" y="0px"
	 viewBox="45 -33.8 150 150" style="enable-background:new 45 -33.8 150 150;" xml:space="preserve">
<style type="text/css">
	.st0{enable-background:new    ;}
</style>
<g class="st0">
	<path d="M146.2,84.4c10.5,0,24.3-0.6,41.5-1.9c-2.7,3.3-4.6,6.8-5.7,10.6h-26.4c-27.1,0-45.5-2.9-55.3-8.7
		c-10.6-6.2-17.2-15.7-19.7-28.6c-3.4,12.5-8.7,23.6-15.7,33.3c0.3,1.7,0.4,3,0.4,4c0,2.1-0.5,3.1-1.6,3.1c-2.3,0-5.5-3.9-9.6-11.6
		c11.4-10,19.5-22.7,24.5-38.1h4c1.8,10,6.6,19,14.6,27C106.1,80.8,122.4,84.4,146.2,84.4z"/>
</g>
</svg>
