<?xml version="1.0" encoding="utf-8"?>
<!-- Generator: Adobe Illustrator 19.0.0, SVG Export Plug-In . SVG Version: 6.00 Build 0)  -->
<svg version="1.1" id="圖層_1" xmlns="http://www.w3.org/2000/svg" xmlns:xlink="http://www.w3.org/1999/xlink" x="0px" y="0px"
	 viewBox="45 -33.8 150 150" style="enable-background:new 45 -33.8 150 150;" xml:space="preserve">
<style type="text/css">
	.st0{enable-background:new    ;}
</style>
<g class="st0">
	<path d="M53.7,80c13-19,24.8-45.9,35.2-80.6c10.2,2.7,15.3,5.2,15.3,7.5c0,1.4-2.2,2.4-6.7,3C85.4,41.8,71.8,66,56.7,82.4L53.7,80z
		 M143.6-2.3c15.1,17.1,26.8,33.8,34.9,50c4.2,9.1,6.3,16.1,6.3,21c0,4.9-1.9,7.3-5.6,7.3c-2.5,0-4.5-3.4-6-10.3
		c-4.3-18.6-15.1-40.4-32.5-65.3L143.6-2.3z"/>
</g>
</svg>
