<?xml version="1.0" encoding="utf-8"?>
<!-- Generator: Adobe Illustrator 19.0.0, SVG Export Plug-In . SVG Version: 6.00 Build 0)  -->
<svg version="1.1" id="圖層_1" xmlns="http://www.w3.org/2000/svg" xmlns:xlink="http://www.w3.org/1999/xlink" x="0px" y="0px"
	 viewBox="45 -33.8 150 150" style="enable-background:new 45 -33.8 150 150;" xml:space="preserve">
<style type="text/css">
	.st0{enable-background:new    ;}
</style>
<g class="st0">
	<path d="M55,97.9l-2.9-3c14.1-14.3,24.4-31.6,30.9-52.1c2.2-7.1,4.3-16.3,6.2-27.8c1.8-10.9,3-21.4,3.6-31.6
		c10.6,2.2,15.9,4.4,15.9,6.5c0,1.3-2.1,2.5-6.3,3.6c-1.2,12.8-3.8,26.2-7.7,40.1c-3.1,11.3-6.3,20-9.5,26.3
		C77.2,75.3,67.1,88,55,97.9z M181.3,97.2c-15.2-12.4-27-29.5-35.2-51.2c-7-18.5-11.1-39.4-12.3-62.7l4.2-0.3
		c0.7,11.9,2.8,24.2,6.1,37.1c2.9,11.1,6.2,20.3,9.9,27.6c8.2,15.9,19.8,29.6,34.9,41.2C186.2,90.7,183.6,93.4,181.3,97.2z"/>
</g>
</svg>
