<?xml version="1.0" encoding="utf-8"?>
<!-- Generator: Adobe Illustrator 19.0.0, SVG Export Plug-In . SVG Version: 6.00 Build 0)  -->
<svg version="1.1" id="圖層_1" xmlns="http://www.w3.org/2000/svg" xmlns:xlink="http://www.w3.org/1999/xlink" x="0px" y="0px"
	 viewBox="45 -33.8 150 150" style="enable-background:new 45 -33.8 150 150;" xml:space="preserve">
<style type="text/css">
	.st0{enable-background:new    ;}
</style>
<g class="st0">
	<path d="M150,35.1v65.4h-8.9V35.1h-39.4c-0.4,16.3-3.2,29.5-8.4,39.5c-5.9,11.6-15.9,21-30.2,28.3l-2.4-3.3
		c20.7-14,31.3-35.5,31.9-64.5H56.4l-1.5-3.7h37.6v-52.1c10.5,0.3,15.7,1.7,15.7,4c0,1.4-2.2,2.8-6.6,4.3v43.8h39v-52.1
		c10.6,0.5,15.9,1.9,15.9,4.2c0,1.4-2.3,3-7,4.6v43.2h16.6l8.3-11.3c4,4.1,7.5,8.1,10.6,12l-1.6,3H150z"/>
</g>
</svg>
