<?xml version="1.0" encoding="utf-8"?>
<!-- Generator: Adobe Illustrator 19.0.0, SVG Export Plug-In . SVG Version: 6.00 Build 0)  -->
<svg version="1.1" id="圖層_1" xmlns="http://www.w3.org/2000/svg" xmlns:xlink="http://www.w3.org/1999/xlink" x="0px" y="0px"
	 viewBox="45 -33.8 150 150" style="enable-background:new 45 -33.8 150 150;" xml:space="preserve">
<style type="text/css">
	.st0{enable-background:new    ;}
</style>
<g class="st0">
	<path d="M84.2,27.4H55.8l-1.5-3.8h29.9V-3.5c9.5,0.1,14.3,1.3,14.3,3.4c0,1.3-1.9,2.8-5.7,4.5v19.2h8.9l6.5-9.4
		c3.2,3,6.2,6.5,9.1,10.3l-1.6,2.9H92.8v27.3h-8.6V27.4z M151.6,27.4v27.3h-8.6V27.4h-21.5l-1.4-3.8h22.9V-3.5
		c9.2,0.1,13.8,1.3,13.8,3.4c0,1.4-1.8,2.8-5.3,4.4v19.3h17.7l7.1-10c3.9,3.8,7.2,7.4,9.9,10.9l-1.7,2.9H151.6z"/>
</g>
</svg>
