<?xml version="1.0" encoding="utf-8"?>
<!-- Generator: Adobe Illustrator 19.0.0, SVG Export Plug-In . SVG Version: 6.00 Build 0)  -->
<svg version="1.1" id="圖層_1" xmlns="http://www.w3.org/2000/svg" xmlns:xlink="http://www.w3.org/1999/xlink" x="0px" y="0px"
	 viewBox="45 -33.8 150 150" style="enable-background:new 45 -33.8 150 150;" xml:space="preserve">
<style type="text/css">
	.st0{enable-background:new    ;}
</style>
<g class="st0">
	<path d="M94.7,36.1V101h-9.3V36.1H55.8l-1.5-3.8h31.1V-24c10.8,0.1,16.2,1.4,16.2,3.8c0,1.5-2.3,3-6.9,4.6v47.8h7l6.5-9.4
		c3.2,3,6.2,6.5,9.1,10.3l-1.6,2.9H94.7z M144.5,32.3v-56.1c10.6-0.1,15.9,1.1,15.9,3.8c0,1.4-2.2,3-6.6,4.6v47.7h15.5l7.1-10
		c3.9,3.8,7.2,7.4,9.9,10.9l-1.7,2.9h-30.8V101h-9.3V36.1h-22.9l-1.4-3.8H144.5z"/>
</g>
</svg>
