<?xml version="1.0" encoding="utf-8"?>
<!-- Generator: Adobe Illustrator 19.0.0, SVG Export Plug-In . SVG Version: 6.00 Build 0)  -->
<svg version="1.1" id="圖層_1" xmlns="http://www.w3.org/2000/svg" xmlns:xlink="http://www.w3.org/1999/xlink" x="0px" y="0px"
	 viewBox="45 -33.8 150 150" style="enable-background:new 45 -33.8 150 150;" xml:space="preserve">
<style type="text/css">
	.st0{enable-background:new    ;}
</style>
<g class="st0">
	<path d="M57.7,71.4c-3.1,0-4.6-1.7-4.6-5c0-1.5,1.2-3.8,3.7-7C64.9,48.9,69.9,34,72,14.6l3.9,1.2c0,16.6-2.1,30.6-6.2,42
		C66.3,66.9,62.3,71.4,57.7,71.4z M90.3,101.9c-0.1-3.2-1.8-5.4-4.8-6.7c-3-1.2-8.1-2.5-15.3-3.7v-4.2c7.6,1.2,14.9,1.8,21.8,1.8
		c3.6,0,5.4-1.6,5.4-4.8V-22.9c10.5,0.5,15.7,1.9,15.7,4.2c0,1.4-2.2,3-6.7,4.6V89.2C106.4,97.7,101,101.9,90.3,101.9z M144.3,70.7
		c-2.7,0-4.6-2.9-5.7-8.6c-2.7-15.1-8.9-30.5-18.6-46.1l2.9-2.3c9.6,10.4,16.9,21.4,21.9,32.8c3.2,7.2,4.8,12.8,4.8,16.8
		C149.6,68.3,147.8,70.7,144.3,70.7z M181.2,69.1c-2.6,0-4.5-2.5-5.7-7.5c-3.4-14.5-11-29.8-22.8-45.8l3-2.4
		c10.5,10.4,18.8,21.1,24.9,32.1c3.9,7.1,5.9,12.7,5.9,16.8C186.5,66.9,184.7,69.1,181.2,69.1z"/>
</g>
</svg>
