<?xml version="1.0" encoding="utf-8"?>
<!-- Generator: Adobe Illustrator 19.0.0, SVG Export Plug-In . SVG Version: 6.00 Build 0)  -->
<svg version="1.1" id="圖層_1" xmlns="http://www.w3.org/2000/svg" xmlns:xlink="http://www.w3.org/1999/xlink" x="0px" y="0px"
	 viewBox="45 -33.8 150 150" style="enable-background:new 45 -33.8 150 150;" xml:space="preserve">
<style type="text/css">
	.st0{enable-background:new    ;}
</style>
<g class="st0">
	<path d="M72,14.6l3.9,1.2c0,16.6-2.1,30.6-6.2,42c-3.4,9-7.4,13.5-12,13.5c-3.1,0-4.6-1.7-4.6-5c0-1.5,1.2-3.8,3.7-7
		C64.9,48.9,69.9,34,72,14.6z M97.4,101.9V-22.9c10.5,0.5,15.7,1.9,15.7,4.2c0,1.4-2.2,3-6.7,4.6v115.9H97.4z M122.9,13.7
		c9.6,10.4,16.9,21.4,21.9,32.8c3.2,7.2,4.8,12.8,4.8,16.8c0,4.9-1.8,7.3-5.3,7.3c-2.7,0-4.6-2.9-5.7-8.6
		c-2.7-15.1-8.9-30.5-18.6-46.1L122.9,13.7z M155.7,13.5c10.5,10.4,18.8,21.1,24.9,32.1c3.9,7.1,5.9,12.7,5.9,16.8
		c0,4.5-1.8,6.7-5.3,6.7c-2.6,0-4.5-2.5-5.7-7.5c-3.4-14.5-11-29.8-22.8-45.8L155.7,13.5z"/>
</g>
</svg>
