<?xml version="1.0" encoding="utf-8"?>
<!-- Generator: Adobe Illustrator 19.0.0, SVG Export Plug-In . SVG Version: 6.00 Build 0)  -->
<svg version="1.1" id="圖層_1" xmlns="http://www.w3.org/2000/svg" xmlns:xlink="http://www.w3.org/1999/xlink" x="0px" y="0px"
	 viewBox="45 -33.8 150 150" style="enable-background:new 45 -33.8 150 150;" xml:space="preserve">
<style type="text/css">
	.st0{enable-background:new    ;}
</style>
<g class="st0">
	<path d="M111,43.5H55.1l-1.7-3.7H111v-36H71.3L69.9,0H111v-29.2c10.3,0.7,15.5,2.2,15.5,4.3c0,1.3-2.2,2.7-6.6,4.2V0h33.4l5.9-6.9
		c6.2,4.9,9.2,8,9.2,9.4c0,0.7-0.4,1.3-1.2,1.8l-4,2.7v32.7h8.6l6.8-9.7c3.7,4.2,6.5,7.7,8.6,10.6l-1.8,2.9h-22.3v46.4h-8.3v-6.3
		H71.4l-1.5-3.7H111V43.5z M119.9,39.7h34.9v-36h-34.9V39.7z M119.9,43.5v36.3h34.9V43.5H119.9z"/>
</g>
</svg>
