<?xml version="1.0" encoding="utf-8"?>
<!-- Generator: Adobe Illustrator 19.0.0, SVG Export Plug-In . SVG Version: 6.00 Build 0)  -->
<svg version="1.1" id="圖層_1" xmlns="http://www.w3.org/2000/svg" xmlns:xlink="http://www.w3.org/1999/xlink" x="0px" y="0px"
	 viewBox="45 -33.8 150 150" style="enable-background:new 45 -33.8 150 150;" xml:space="preserve">
<style type="text/css">
	.st0{enable-background:new    ;}
</style>
<g class="st0">
	<path d="M115.3,28.8H55.1l-1.7-3.7h62.2c0.3-5.7,0.4-9.4,0.4-11.4v-10H71.3L69.9,0H116v-25.1c10.4,0.4,15.6,1.8,15.6,4
		c0,1.5-2.1,2.9-6.4,4.2V0h28.1l5.9-6.9c6.2,4.9,9.2,8,9.2,9.4c0,0.7-0.4,1.3-1.2,1.8l-4,2.7v18h8.6l6.8-9.7
		c3.7,4.2,6.5,7.7,8.6,10.6l-1.8,2.9h-22.3v31.7h-8.3v-6.3h-36.4c-9.7,24.5-29.5,40.9-59.3,49.2l-2.4-3.7
		c25.4-9.9,42.7-25.1,51.9-45.6H71.4l-1.5-3.7H110C112.6,43.8,114.4,36.6,115.3,28.8z M124.6,28.8c-0.9,7.8-2.5,15-4.8,21.7h35V28.8
		H124.6z M124.8,25.1h30V3.8h-29.6v9.7C125.2,15.4,125.1,19.2,124.8,25.1z"/>
</g>
</svg>
