<?xml version="1.0" encoding="utf-8"?>
<!-- Generator: Adobe Illustrator 19.0.0, SVG Export Plug-In . SVG Version: 6.00 Build 0)  -->
<svg version="1.1" id="圖層_1" xmlns="http://www.w3.org/2000/svg" xmlns:xlink="http://www.w3.org/1999/xlink" x="0px" y="0px"
	 viewBox="45 -33.8 150 150" style="enable-background:new 45 -33.8 150 150;" xml:space="preserve">
<style type="text/css">
	.st0{enable-background:new    ;}
</style>
<g class="st0">
	<path d="M128,69.9c8.3-23,15.4-48.7,21.3-77.1c10.3,3.6,15.5,6.6,15.5,8.9c0,1.4-2.3,2.3-6.8,2.7c-7.1,23-15.4,44.9-24.8,65.6h31.7
		l8.6-11.9c3.7,3.3,7.6,7.5,11.7,12.6l-2.1,3H58.5l-1.7-3.7H128z M81.3-3.9C92.2,10.6,99.7,24.5,104,37.7c2.3,7.2,3.4,12.8,3.4,16.8
		c0,5.7-1.9,8.6-5.7,8.6c-2.7,0-4.3-3.1-4.9-9.4c-1.4-17-7.6-35.4-18.8-55.2L81.3-3.9z"/>
</g>
</svg>
