<?xml version="1.0" encoding="utf-8"?>
<!-- Generator: Adobe Illustrator 19.0.0, SVG Export Plug-In . SVG Version: 6.00 Build 0)  -->
<svg version="1.1" id="圖層_1" xmlns="http://www.w3.org/2000/svg" xmlns:xlink="http://www.w3.org/1999/xlink" x="0px" y="0px"
	 viewBox="45 -33.8 150 150" style="enable-background:new 45 -33.8 150 150;" xml:space="preserve">
<style type="text/css">
	.st0{enable-background:new    ;}
</style>
<g class="st0">
	<path d="M133.8,68.7c16.6-2.3,33-5,49.1-8.2l1,3.1c-37.5,9-76.6,15.7-117.3,20.1c-0.7,4.2-1.7,6.3-3,6.3c-2.1,0-4.6-4.7-7.5-14.2
		c24.6-1.2,48.6-3.3,72.1-6.4c8.2-22.9,15.3-48.4,21.2-76.6c10.3,3.6,15.5,6.6,15.5,8.9c0,1.4-2.3,2.3-6.8,2.7
		C151,26.9,142.9,48.3,133.8,68.7z M81.3-3.9C92.2,10.6,99.7,24.5,104,37.7c2.3,7.2,3.4,12.8,3.4,16.8c0,5.7-1.9,8.6-5.7,8.6
		c-2.7,0-4.3-3.1-4.9-9.4c-1.4-17-7.6-35.4-18.8-55.2L81.3-3.9z"/>
</g>
</svg>
