<?xml version="1.0" encoding="utf-8"?>
<!-- Generator: Adobe Illustrator 19.0.0, SVG Export Plug-In . SVG Version: 6.00 Build 0)  -->
<svg version="1.1" id="圖層_1" xmlns="http://www.w3.org/2000/svg" xmlns:xlink="http://www.w3.org/1999/xlink" x="0px" y="0px"
	 viewBox="45 -33.8 150 150" style="enable-background:new 45 -33.8 150 150;" xml:space="preserve">
<style type="text/css">
	.st0{enable-background:new    ;}
</style>
<g class="st0">
	<path d="M113.4,12H62.9l-1.5-3.7h52.4c1.1-9.9,1.7-20.9,1.8-32.9c10.8,0.5,16.2,1.9,16.2,4c0,1.5-2.5,2.8-7.5,4
		c-0.1,8.8-0.7,17.1-1.5,24.9h36.9l8.1-10.8c3,2.7,6.6,6.5,10.8,11.5l-2,3h-54.3c-1.9,13.7-5,25.8-9.3,36.1h50.6l8.7-11.1
		c3.5,3.3,7.2,7.3,11.2,12l-1.8,2.9h-70.5c-3,6.4-6.6,12.1-10.6,17.1C91,82.4,75.5,93.3,54.4,101.6l-2.3-3.3
		c19.6-9.7,34.4-21.7,44.2-35.8c2.3-3.1,4.5-6.7,6.4-10.7H58l-1.5-3.7h47.9C108.5,38.3,111.6,26.2,113.4,12z"/>
</g>
</svg>
