<?xml version="1.0" encoding="utf-8"?>
<!-- Generator: Adobe Illustrator 19.0.0, SVG Export Plug-In . SVG Version: 6.00 Build 0)  -->
<svg version="1.1" id="圖層_1" xmlns="http://www.w3.org/2000/svg" xmlns:xlink="http://www.w3.org/1999/xlink" x="0px" y="0px"
	 viewBox="45 -33.8 150 150" style="enable-background:new 45 -33.8 150 150;" xml:space="preserve">
<style type="text/css">
	.st0{enable-background:new    ;}
</style>
<g>
	<g class="st0">
		<path d="M83,102.4l-7.3-2.1c8-15.4,18.2-37.5,30.4-66.1c10.1-23.7,17.8-43.2,23-58.4c9.1,1.3,13.4,2.9,13,4.8
			c-0.3,1.2-2.6,2.4-7.1,3.6c-4.7,13.2-11.7,30.6-21,52.2C105.3,56.5,95,78.5,83,102.4z"/>
	</g>
	<g class="st0">
		<path d="M58.1,58.5l-1.7-3.7h106.2l9-11.6c4.2,3.9,8.2,7.9,11.9,12.2l-1.8,3.1H58.1z M63.6,14.6L62,10.9h96.8l9-11.6
			c4.2,3.9,8.2,7.9,11.8,12.2l-1.8,3.1H63.6z"/>
	</g>
</g>
</svg>
