<?xml version="1.0" encoding="utf-8"?>
<!-- Generator: Adobe Illustrator 19.0.0, SVG Export Plug-In . SVG Version: 6.00 Build 0)  -->
<svg version="1.1" id="圖層_1" xmlns="http://www.w3.org/2000/svg" xmlns:xlink="http://www.w3.org/1999/xlink" x="0px" y="0px"
	 viewBox="45 -33.8 150 150" style="enable-background:new 45 -33.8 150 150;" xml:space="preserve">
<style type="text/css">
	.st0{enable-background:new    ;}
</style>
<g class="st0">
	<path d="M87.1,20.9h80.5l5.9-7.5c6.3,5.2,9.4,8.6,9.4,10.2c0,0.7-0.3,1.2-1,1.6l-4.2,2.7c-1.2,34.7-4.1,56.2-8.7,64.5
		c-3.6,6.3-10.2,9.4-19.8,9.4c-0.1-2.8-2.1-4.9-5.9-6.4c-3-1.1-8.9-2.5-17.7-4.2v-4c12.2,1.8,20.8,2.7,25.9,2.7
		c4.4,0,7.4-1.1,8.9-3.3c4.6-6.5,7.4-27.1,8.4-61.9H65.9l-1.7-3.7h16.3c10.8-11.3,23.7-31.1,32.8-47.8c10.3,3.6,13.5,6.6,13.5,8.9
		c0,1.4-3.3,2.8-8.8,2.7C106.3,0.6,97.8,10.2,87.1,20.9z"/>
</g>
</svg>
