<?xml version="1.0" encoding="utf-8"?>
<!-- Generator: Adobe Illustrator 19.0.0, SVG Export Plug-In . SVG Version: 6.00 Build 0)  -->
<svg version="1.1" id="圖層_1" xmlns="http://www.w3.org/2000/svg" xmlns:xlink="http://www.w3.org/1999/xlink" x="0px" y="0px"
	 viewBox="45 -33.8 150 150" style="enable-background:new 45 -33.8 150 150;" xml:space="preserve">
<style type="text/css">
	.st0{enable-background:new    ;}
</style>
<g class="st0">
	<path d="M118,10.2C105.9,17.3,92.5,24,77.6,30.2l-2.4-3.3c13.6-6.1,27.4-14.2,41.5-24.2c13.4-10.2,23.5-20.1,30.4-29.7
		c7.8,4.1,11.7,7.1,11.7,9.2c0,1.2-1.2,1.8-3.7,1.8c-1.3,0-2.4,0-3.1-0.1c-7.8,8-17.9,16.1-30.5,24.4c15,16.7,22.6,34.5,22.6,53.4
		c0,12.5-1.5,22.6-4.4,30c-3.1,8.2-9.4,12.2-18.8,12c-0.2-2.9-2.1-5.1-5.6-6.6c-2.6-1.1-8.1-2.5-16.5-4.2v-4
		c8.2,1.5,15.4,2.3,21.5,2.3c5.8,0,9.5-2.1,11.2-6.2c2.5-5.9,3.8-14.5,3.8-25.8C134.5,41.1,128.8,24.8,118,10.2z"/>
</g>
</svg>
