<?xml version="1.0" encoding="utf-8"?>
<!-- Generator: Adobe Illustrator 19.0.0, SVG Export Plug-In . SVG Version: 6.00 Build 0)  -->
<svg version="1.1" id="圖層_1" xmlns="http://www.w3.org/2000/svg" xmlns:xlink="http://www.w3.org/1999/xlink" x="0px" y="0px"
	 viewBox="45 -33.8 150 150" style="enable-background:new 45 -33.8 150 150;" xml:space="preserve">
<style type="text/css">
	.st0{enable-background:new    ;}
</style>
<g class="st0">
	<path d="M91.7-2.7h72.1l6.4-8C176.8-5.4,180-2,180-0.5c0,0.7-0.4,1.3-1.3,1.9l-4.3,2.7c-0.4,29.1-3.3,53.8-8.7,74
		c-2.8,10.7-6.9,17.6-12.3,20.5c-4.1,2.1-8.6,3.1-13.8,3.1c-0.2-3.2-2.4-5.6-6.7-7.2c-3.7-1.3-10.3-2.8-19.8-4.3v-4.1
		c11.5,1.8,21.1,2.7,28.6,2.7c7,0,11.6-3.3,13.8-10c6.1-17.4,9.3-43.4,9.6-78H90.1c-8,15.8-18.3,29-31.1,39.6l-2.7-2.6
		c15.8-17.5,26.8-39.4,33-65.8c10.3,2.1,15.5,4.2,15.5,6.4c0,1.4-2.3,2.6-6.9,3.6C95.9-12.3,93.8-7.2,91.7-2.7z"/>
</g>
</svg>
