<?xml version="1.0" encoding="utf-8"?>
<!-- Generator: Adobe Illustrator 19.0.0, SVG Export Plug-In . SVG Version: 6.00 Build 0)  -->
<svg version="1.1" id="圖層_1" xmlns="http://www.w3.org/2000/svg" xmlns:xlink="http://www.w3.org/1999/xlink" x="0px" y="0px"
	 viewBox="45 -33.8 150 150" style="enable-background:new 45 -33.8 150 150;" xml:space="preserve">
<style type="text/css">
	.st0{enable-background:new    ;}
</style>
<g class="st0">
	<path d="M108.6,37.6l1.9,3.3C95.4,53.6,80.9,64.3,67,72.9c0.1,0.7,0.2,1.5,0.2,2.4c0,3-0.6,4.5-1.8,4.5c-1.9,0-5-4.4-9.2-13.2
		C76.3,57.8,93.8,48.2,108.6,37.6z M65.9-0.2C86.2,9.9,96.3,19.4,96.3,28.3c0,4.2-1.9,6.3-5.7,6.3c-2.1,0-3.9-1.6-5.3-4.8
		c-4-10.1-11.3-19-21.8-27L65.9-0.2z M125-18.1c2.1,17.7,6.6,33.3,13.8,46.7c11.5-11.2,20.7-22.5,27.5-34.1
		c7.9,5.1,11.9,8.6,11.9,10.6c0,1.2-1.3,1.8-3.9,1.8c-0.3,0-1.4-0.1-3.4-0.3c-7.8,8.3-17.7,16.9-29.9,25.6
		c10.8,18.1,26.1,33.1,45.9,44.9c-3,2.1-5.8,5.1-8.4,8.7C149.3,65,131.5,37,125,2v89.5c0,7.8-5.2,11.7-15.5,11.7
		c0-3-1.4-5.1-4.2-6.4c-3.1-1.5-8.8-2.9-17.1-4.2v-4c8.4,1,16,1.5,22.9,1.5c3.5,0,5.3-1.5,5.3-4.5V-26.1c10,0.4,15,1.7,15,3.9
		C131.4-21,129.3-19.6,125-18.1z"/>
</g>
</svg>
