<?xml version="1.0" encoding="utf-8"?>
<!-- Generator: Adobe Illustrator 19.0.0, SVG Export Plug-In . SVG Version: 6.00 Build 0)  -->
<svg version="1.1" id="圖層_1" xmlns="http://www.w3.org/2000/svg" xmlns:xlink="http://www.w3.org/1999/xlink" x="0px" y="0px"
	 viewBox="45 -33.8 150 150" style="enable-background:new 45 -33.8 150 150;" xml:space="preserve">
<style type="text/css">
	.st0{enable-background:new    ;}
</style>
<g class="st0">
	<path d="M101.3,38.4l1.9,3.3C89.1,53.4,76.8,61.6,66.3,66.3c0.1,0.7,0.2,1.5,0.2,2.4c0,3-0.6,4.5-1.8,4.5c-1.9,0-5-4.4-9.2-13.2
		C72.2,55.1,87.5,47.9,101.3,38.4z M65.9-1.7c21,6.4,31.6,13.4,31.6,20.9c0,3.8-1.8,5.7-5.4,5.7c-1.9,0-3.6-1.4-5-4.3
		C84.5,14.8,76.8,8.4,64,1.1L65.9-1.7z M114.7,79.5v-95.1c11.1,0.5,16.6,1.9,16.6,4.2c0,1.4-2.4,3-7.2,4.6v86.2H114.7z M166.2-4.8
		c7.9,5.2,11.9,8.9,11.9,10.9c0,1.3-1.4,2-4.1,2c-1.4,0-2.5,0-3.3-0.1c-5.9,4.6-16.6,10.4-32.2,17.6l-1.8-2.9
		C150.7,13.2,160.6,4.1,166.2-4.8z M139.5,37.2c25.1,12.2,37.6,21.6,37.6,28.2c0,3.9-1.8,5.9-5.3,5.9c-2,0-3.9-2-5.9-5.9
		c-4.2-6.8-13.8-15.3-28.9-25.5L139.5,37.2z"/>
</g>
</svg>
