<?xml version="1.0" encoding="utf-8"?>
<!-- Generator: Adobe Illustrator 19.0.0, SVG Export Plug-In . SVG Version: 6.00 Build 0)  -->
<svg version="1.1" id="圖層_1" xmlns="http://www.w3.org/2000/svg" xmlns:xlink="http://www.w3.org/1999/xlink" x="0px" y="0px"
	 viewBox="45 -33.8 150 150" style="enable-background:new 45 -33.8 150 150;" xml:space="preserve">
<style type="text/css">
	.st0{enable-background:new    ;}
</style>
<g class="st0">
	<path d="M110.6,37.6l1.9,3.3C97.4,53.6,82.9,64.3,69,72.9c0.1,0.7,0.2,1.5,0.2,2.4c0,3-0.6,4.5-1.8,4.5c-1.9,0-5-4.4-9.2-13.2
		C78.3,57.8,95.8,48.2,110.6,37.6z M67.9-0.2C88.2,9.9,98.3,19.4,98.3,28.3c0,4.2-1.9,6.3-5.7,6.3c-2.1,0-3.9-1.6-5.3-4.8
		c-4-10.1-11.3-19-21.8-27L67.9-0.2z M180.7,75.6c0,3.6-1.5,5.4-4.5,5.4c-2,0-3.8-1.2-5.4-3.7c-12.7-14.5-27.5-26.8-44.2-36.9v50.9
		c0,5.6-2,9-6,10.3c-2.4,0.9-5.6,1.4-9.6,1.4c-0.1-2.8-1.5-4.8-4-6.2c-2.5-1.3-7.7-2.7-15.5-4.1v-4c7.8,1.3,14.8,2,21.2,2
		c3.4,0,5.1-1.5,5.1-4.4V-26.3c10.6,0.1,15.9,1.5,15.9,4c0,1.4-2.3,3-7,4.6v53.7C162.6,53.3,180.7,66.5,180.7,75.6z M166.3-1.9
		c7.9,5.2,11.9,8.9,11.9,10.9c0,1.3-1.4,2-4.1,2c-1.4,0-2.5,0-3.3-0.1c-7.5,8.3-19.1,16.4-34.6,24.2l-2.7-2.6
		C148.1,22.2,159,10.8,166.3-1.9z"/>
</g>
</svg>
