<?xml version="1.0" encoding="utf-8"?>
<!-- Generator: Adobe Illustrator 19.0.0, SVG Export Plug-In . SVG Version: 6.00 Build 0)  -->
<svg version="1.1" id="圖層_1" xmlns="http://www.w3.org/2000/svg" xmlns:xlink="http://www.w3.org/1999/xlink" x="0px" y="0px"
	 viewBox="45 -33.8 150 150" style="enable-background:new 45 -33.8 150 150;" xml:space="preserve">
<style type="text/css">
	.st0{enable-background:new    ;}
</style>
<g class="st0">
	<path d="M122.5-15.9v4.9c0,46.7,21.7,80.5,65.1,101.4c-4.1,2.8-7,5.8-8.7,8.9c-23-14.3-38.9-31-47.7-50.1
		c-4.8-10.4-8.1-22.2-9.9-35.6c-2.9,22.2-9.2,40.3-19,54.1c-10.5,14.6-26.4,26-47.6,34.1l-2.2-3.3c23-11.3,39.1-26.5,48.3-45.6
		C108.9,36.1,113,15.1,113-9.9v-14.3c10.7,0.4,16,1.8,16,4C129.1-18.7,126.9-17.3,122.5-15.9z"/>
</g>
</svg>
