<?xml version="1.0" encoding="utf-8"?>
<!-- Generator: Adobe Illustrator 19.0.0, SVG Export Plug-In . SVG Version: 6.00 Build 0)  -->
<svg version="1.1" id="圖層_1" xmlns="http://www.w3.org/2000/svg" xmlns:xlink="http://www.w3.org/1999/xlink" x="0px" y="0px"
	 viewBox="45 -33.8 150 150" style="enable-background:new 45 -33.8 150 150;" xml:space="preserve">
<style type="text/css">
	.st0{enable-background:new    ;}
</style>
<g class="st0">
	<path d="M120.6,9.9c-1-5.3-1.5-12.1-1.7-20.4H81.7l-1.5-3.7h35.5l6.8-8.9c6.3,5.1,9.4,8.3,9.4,9.7c0,0.7-0.7,1.5-2.1,2.3l-5.7,3
		c1.3,19.7,5.9,36.7,13.6,50.8c10.5,19.1,26.9,35.4,48.9,48.9c-3.5,2.3-6.3,5.2-8.3,8.6c-26-18-43.9-41.7-53.7-71.2
		c-11.8,33.9-34.2,58.5-67,73.8l-2.4-3.3C89.4,80.2,111.2,50.3,120.6,9.9z"/>
</g>
</svg>
