<?xml version="1.0" encoding="utf-8"?>
<!-- Generator: Adobe Illustrator 19.0.0, SVG Export Plug-In . SVG Version: 6.00 Build 0)  -->
<svg version="1.1" id="圖層_1" xmlns="http://www.w3.org/2000/svg" xmlns:xlink="http://www.w3.org/1999/xlink" x="0px" y="0px"
	 viewBox="45 -33.8 150 150" style="enable-background:new 45 -33.8 150 150;" xml:space="preserve">
<style type="text/css">
	.st0{enable-background:new    ;}
</style>
<g class="st0">
	<path d="M121.3,10.3c-2.9,22.2-9.2,40.3-19,54.1C91.7,79,75.9,90.4,54.7,98.5l-2.2-3.3c23-11.3,39.1-26.5,48.3-45.6
		c8.2-16.8,12.3-37.8,12.3-62.8v-14.3c10.7,0.4,16,1.8,16,4c0,1.5-2.2,2.9-6.6,4.2C122.5-16,122.1-6.1,121.3,10.3z M121.2,23.5
		l-2.3,3.4C142.7,46.4,161,69,173.8,94.7c1.6,2.5,3.4,3.7,5.4,3.7c3,0,4.5-1.8,4.5-5.4C183.6,77.5,162.8,54.3,121.2,23.5z"/>
</g>
</svg>
