<?xml version="1.0" encoding="utf-8"?>
<!-- Generator: Adobe Illustrator 19.0.0, SVG Export Plug-In . SVG Version: 6.00 Build 0)  -->
<svg version="1.1" id="圖層_1" xmlns="http://www.w3.org/2000/svg" xmlns:xlink="http://www.w3.org/1999/xlink" x="0px" y="0px"
	 viewBox="45 -33.8 150 150" style="enable-background:new 45 -33.8 150 150;" xml:space="preserve">
<style type="text/css">
	.st0{enable-background:new    ;}
</style>
<g class="st0">
	<path d="M124,75.6c9.1,8.5,15.6,12.7,19.5,12.7c3.4,0,6.5-10.3,9.3-30.8l4,2c-1,9.8-1.5,17.1-1.5,21.9c0,7.7,1.9,11.7,5.6,12
		c-0.9,5-3.8,7.5-8.7,7.5c-8.4,0-18.2-4.7-29.5-14.2C105.4,72,93.8,50.5,87.9,22.2c-2.1-11.6-3.1-23.9-3.1-36.9v-10.5
		c10.5,0.4,15.7,1.7,15.7,3.9c0,1.3-2.1,2.9-6.4,4.8v2.4c0,11.7,0.9,23.4,2.8,35.3C102,45.2,111,63.3,124,75.6z"/>
</g>
</svg>
