<?xml version="1.0" encoding="utf-8"?>
<!-- Generator: Adobe Illustrator 19.0.0, SVG Export Plug-In . SVG Version: 6.00 Build 0)  -->
<svg version="1.1" id="圖層_1" xmlns="http://www.w3.org/2000/svg" xmlns:xlink="http://www.w3.org/1999/xlink" x="0px" y="0px"
	 viewBox="45 -33.8 150 150" style="enable-background:new 45 -33.8 150 150;" xml:space="preserve">
<style type="text/css">
	.st0{enable-background:new    ;}
</style>
<g class="st0">
	<path d="M114.8,80.7V25.9H58l-1.7-3.7h58.5v-46.8c10.9,0.4,16.3,1.7,16.3,3.9c0,1.4-2.3,2.9-6.9,4.4v38.5h39.7l8.9-11.6
		c4.5,4.5,8.2,8.5,11.1,12.2l-1.7,3.1h-58v53.5c16.2-2.5,32-5.6,47.6-9.4l1,3.1c-30.2,9-61.7,15.7-94.6,20.1c-0.7,4.2-1.7,6.3-3,6.3
		c-2.1,0-4.6-4.7-7.5-14.2C83.7,84.4,99.4,82.8,114.8,80.7z"/>
</g>
</svg>
