<?xml version="1.0" encoding="utf-8"?>
<!-- Generator: Adobe Illustrator 19.0.0, SVG Export Plug-In . SVG Version: 6.00 Build 0)  -->
<svg version="1.1" id="圖層_1" xmlns="http://www.w3.org/2000/svg" xmlns:xlink="http://www.w3.org/1999/xlink" x="0px" y="0px"
	 viewBox="45 -33.8 150 150" style="enable-background:new 45 -33.8 150 150;" xml:space="preserve">
<style type="text/css">
	.st0{enable-background:new    ;}
</style>
<g class="st0">
	<path d="M83.2,38.9v-62.5c10.7,0.1,16,1.4,16,3.9c0,1.5-2.3,3.1-6.9,4.7v50.2c29.2-12.5,52.2-26,69-40.8
		c7.5,5.1,11.3,8.8,11.3,11.1c0,1.1-1,1.6-2.9,1.6c-1.3,0-3-0.3-5.3-0.9c-17.9,12.7-42,24.5-72.1,35.5v41.9c0,3.2,1.1,5.2,3.3,5.9
		c3,1,13.4,1.5,31.2,1.5c16.4,0,27.2-0.6,32.5-1.7c3.5-0.7,5.7-3,6.8-6.9c1.2-4.2,2.3-11.8,3.4-22.6l3.7,1.5
		c-0.3,6.1-0.4,10.3-0.4,12.6c0,6.2,0.6,10.2,1.9,12c1.1,1.5,2.8,2.3,5.3,2.3c-0.1,5.3-2.9,8.4-8.1,9.3c-6.7,1.1-22.5,1.7-47.4,1.7
		c-20.1,0-32.1-0.8-36-2.4c-3.6-1.5-5.4-5.4-5.4-11.7V44.9c-10.3,3.4-20,6.4-29.3,8.9l-1.5-3.9C63.9,46.3,74.2,42.7,83.2,38.9z"/>
</g>
</svg>
