<?xml version="1.0" encoding="utf-8"?>
<!-- Generator: Adobe Illustrator 19.0.0, SVG Export Plug-In . SVG Version: 6.00 Build 0)  -->
<svg version="1.1" id="圖層_1" xmlns="http://www.w3.org/2000/svg" xmlns:xlink="http://www.w3.org/1999/xlink" x="0px" y="0px"
	 viewBox="45 -33.8 150 150" style="enable-background:new 45 -33.8 150 150;" xml:space="preserve">
<style type="text/css">
	.st0{enable-background:new    ;}
</style>
<g class="st0">
	<path d="M86.2,28v55.7c0,3.2,1.1,5.2,3.3,5.9c3,1,14.1,1.5,33.3,1.5c16.4,0,27.2-0.6,32.5-1.7c3.5-0.7,5.7-3,6.7-6.9
		c1.2-4.2,2.4-11.8,3.4-22.6l3.8,1.5c-0.3,6-0.5,10.2-0.5,12.6c0,6.2,0.7,10.2,2,12c1,1.5,2.8,2.3,5.3,2.3c-0.1,5.3-2.9,8.4-8.1,9.3
		c-6.7,1.1-22.5,1.7-47.4,1.7c-21.5,0-34.2-0.8-38.1-2.4c-3.6-1.5-5.4-5.4-5.4-11.7V-17.6c10.7,0.1,16,1.4,16,3.9
		c0,1.5-2.3,3-6.9,4.7v33.3h62.1l8.6-11c4.1,3.6,7.3,6.9,9.7,9.8l1.8,2.1l-1.6,2.9H86.2z"/>
</g>
</svg>
