<?xml version="1.0" encoding="utf-8"?>
<!-- Generator: Adobe Illustrator 19.0.0, SVG Export Plug-In . SVG Version: 6.00 Build 0)  -->
<svg version="1.1" id="圖層_1" xmlns="http://www.w3.org/2000/svg" xmlns:xlink="http://www.w3.org/1999/xlink" x="0px" y="0px"
	 viewBox="45 -33.8 150 150" style="enable-background:new 45 -33.8 150 150;" xml:space="preserve">
<style type="text/css">
	.st0{enable-background:new    ;}
</style>
<g class="st0">
	<path d="M79.7,84.3c34.2-2.5,66.8-7.3,97.9-14.3l1,3.1c-32.6,9-67.3,15.7-104.2,20.1c-0.7,4.2-1.7,6.3-3,6.3
		c-2.1,0-4.6-4.7-7.5-14.2c2.2-0.1,4.4-0.2,6.6-0.4V-17.6c10.7,0.1,16,1.4,16,3.9c0,1.5-2.3,3-6.9,4.7v33.3h74.6l8.6-11
		c4.1,3.6,7.9,7.6,11.5,11.9l-1.6,2.9h-93V84.3z"/>
</g>
</svg>
