<?xml version="1.0" encoding="utf-8"?>
<!-- Generator: Adobe Illustrator 19.0.0, SVG Export Plug-In . SVG Version: 6.00 Build 0)  -->
<svg version="1.1" id="圖層_1" xmlns="http://www.w3.org/2000/svg" xmlns:xlink="http://www.w3.org/1999/xlink" x="0px" y="0px"
	 viewBox="45 -33.8 150 150" style="enable-background:new 45 -33.8 150 150;" xml:space="preserve">
<style type="text/css">
	.st0{enable-background:new    ;}
</style>
<g class="st0">
	<path d="M91.7,32.8c-0.3,15-2,27.3-5.1,36.9c-4.4,14.5-12.7,26.2-24.9,35.4l-2.6-3C74.3,86.4,82,62.9,82,31.6v-45
		c4.4,2,7.7,3.5,9.9,4.8c26.8-4.3,48.9-10.2,66.4-17.5c8.1,4.6,12.2,7.9,12.2,9.7c0,0.9-1,1.3-3,1.3c-1,0-2.9-0.2-5.7-0.7
		c-23.9,5.4-47.2,9.2-69.9,11.6V32.8z"/>
</g>
</svg>
