<?xml version="1.0" encoding="utf-8"?>
<!-- Generator: Adobe Illustrator 19.0.0, SVG Export Plug-In . SVG Version: 6.00 Build 0)  -->
<svg version="1.1" id="圖層_1" xmlns="http://www.w3.org/2000/svg" xmlns:xlink="http://www.w3.org/1999/xlink" x="0px" y="0px"
	 viewBox="45 -33.8 150 150" style="enable-background:new 45 -33.8 150 150;" xml:space="preserve">
<style type="text/css">
	.st0{enable-background:new    ;}
</style>
<g class="st0">
	<path d="M115.9,52.3c31.5,15.8,47.2,27.8,47.2,36c0,3.9-1.5,5.8-4.5,5.8c-1.4,0-4.3-2.2-8.7-6.6c-8.4-8.3-21.2-17.9-38.4-28.8
		C100,51.5,89.4,45.6,79.6,40.9l2.6-3.7C92,41,103.2,46,115.9,52.3z M143.5-21.6c7.9,5.2,11.9,8.9,11.9,10.9c0,1.3-1.4,2-4.1,2
		c-1.4,0-2.5,0-3.3-0.1C132.1,6.8,112.7,19,89.6,28l-1.8-2.9C109.3,13.9,127.9-1.7,143.5-21.6z"/>
</g>
</svg>
