<?xml version="1.0" encoding="utf-8"?>
<!-- Generator: Adobe Illustrator 19.0.0, SVG Export Plug-In . SVG Version: 6.00 Build 0)  -->
<svg version="1.1" id="圖層_1" xmlns="http://www.w3.org/2000/svg" xmlns:xlink="http://www.w3.org/1999/xlink" x="0px" y="0px"
	 viewBox="45 -33.8 150 150" style="enable-background:new 45 -33.8 150 150;" xml:space="preserve">
<style type="text/css">
	.st0{enable-background:new    ;}
</style>
<g class="st0">
	<path d="M68.5-5.3c16.8,33.9,40,58.2,59.3,70.1c13.5,8.4,30.9,15.6,52.4,21.7c-3.4,2.2-6.1,5.3-8.2,9.4C140,85.4,115.7,70.7,99,52
		C89.8,41.7,72.2,17.6,64.9-3.5L68.5-5.3z M152-21.6c7.9,5.2,11.9,8.9,11.9,10.9c0,1.3-1.4,2-4.1,2c-1.4,0-2.5,0-3.3-0.1
		C140.6,6.8,118,19.2,88.8,28.6L87,25.7C114.7,14.1,136.4-1.7,152-21.6z"/>
</g>
</svg>
