<?xml version="1.0" encoding="utf-8"?>
<!-- Generator: Adobe Illustrator 19.0.0, SVG Export Plug-In . SVG Version: 6.00 Build 0)  -->
<svg version="1.1" id="圖層_1" xmlns="http://www.w3.org/2000/svg" xmlns:xlink="http://www.w3.org/1999/xlink" x="0px" y="0px"
	 viewBox="45 -33.8 150 150" style="enable-background:new 45 -33.8 150 150;" xml:space="preserve">
<style type="text/css">
	.st0{enable-background:new    ;}
</style>
<g class="st0">
	<path d="M114.8,80.5V25.3H66.5l-1.3-3.7h49.7v-46.2c10.7,0.4,16,1.7,16,3.9c0,1.3-2.2,2.7-6.6,4.4v37.9h32.2l7.8-10.6
		c3.9,3.6,7.5,7.3,10.8,11.4l-1.8,3h-49v54.1c19.9-2.5,39.4-5.6,58.6-9.4l1,3.1c-37.5,9-76.6,15.7-117.3,20.1
		c-0.7,4.2-1.7,6.3-3,6.3c-2.1,0-4.6-4.7-7.5-14.2C76,84.3,95.6,82.7,114.8,80.5z"/>
</g>
</svg>
