<?xml version="1.0" encoding="utf-8"?>
<!-- Generator: Adobe Illustrator 19.0.0, SVG Export Plug-In . SVG Version: 6.00 Build 0)  -->
<svg version="1.1" id="圖層_1" xmlns="http://www.w3.org/2000/svg" xmlns:xlink="http://www.w3.org/1999/xlink" x="0px" y="0px"
	 viewBox="45 -33.8 150 150" style="enable-background:new 45 -33.8 150 150;" xml:space="preserve">
<style type="text/css">
	.st0{enable-background:new    ;}
</style>
<g class="st0">
	<path d="M163.3-10.6H70.2l-1.5-3.7h93.6l6.2-7.6c6.9,5.8,10.3,9.4,10.3,10.9c0,0.8-0.5,1.4-1.5,1.8l-4.6,2.6
		c-6.2,21.1-13.5,38.3-22,51.3c-3.2,4.7-8.3,11.3-15.4,19.7c-19.8,19.6-43,32.7-69.7,39.3l-2-3.8c13.1-4.5,24.7-9.9,34.7-16.2
		c10-6.2,20.2-14.7,30.5-25.6C145.4,38.8,156.9,15.9,163.3-10.6z"/>
</g>
</svg>
