<?xml version="1.0" encoding="utf-8"?>
<!-- Generator: Adobe Illustrator 19.0.0, SVG Export Plug-In . SVG Version: 6.00 Build 0)  -->
<svg version="1.1" id="圖層_1" xmlns="http://www.w3.org/2000/svg" xmlns:xlink="http://www.w3.org/1999/xlink" x="0px" y="0px"
	 viewBox="45 -33.8 150 150" style="enable-background:new 45 -33.8 150 150;" xml:space="preserve">
<style type="text/css">
	.st0{enable-background:new    ;}
</style>
<g class="st0">
	<path d="M168,55.5c0.1,13.9,0.8,22.3,1.8,25.3c0.8,2.4,2.5,3.6,5.3,3.4c-0.3,5.2-3.1,8.3-8.3,9.4c-5.9,1.2-21.5,1.8-46.9,1.8
		c-22.3,0-34.9-0.7-37.9-2c-3.6-1.5-5.4-5.4-5.4-11.9V-20.2c10.4,0.1,15.6,1.4,15.6,3.8c0,1.3-2.1,2.8-6.2,4.5v92.2
		c0,3,0.9,4.8,2.7,5.6c2.4,0.8,12.3,1.2,29.8,1.2c20.6,0,32.7-0.6,36.3-1.7c3-1.1,5-3.6,6-7.6c1.2-4.3,2.3-12.1,3.4-23.4L168,55.5z"
		/>
</g>
</svg>
