<?xml version="1.0" encoding="utf-8"?>
<!-- Generator: Adobe Illustrator 19.0.0, SVG Export Plug-In . SVG Version: 6.00 Build 0)  -->
<svg version="1.1" id="圖層_1" xmlns="http://www.w3.org/2000/svg" xmlns:xlink="http://www.w3.org/1999/xlink" x="0px" y="0px"
	 viewBox="45 -33.8 150 150" style="enable-background:new 45 -33.8 150 150;" xml:space="preserve">
<style type="text/css">
	.st0{enable-background:new    ;}
</style>
<g class="st0">
	<path d="M53.7,77.8c13-19,22.3-42.7,27.9-71.1c10.2,2.7,15.3,5.2,15.3,7.5c0,1.4-2.2,2.4-6.7,3c-7.2,25.6-18.4,46.6-33.5,63
		L53.7,77.8z M85.8,88.5c9.9,1.1,18,1.7,24.3,1.7c3.5,0,5.3-1.6,5.3-4.7V-24.9c10.6,0.3,15.9,1.6,15.9,3.9c0,1.4-2.2,2.9-6.7,4.3
		V90.4c0,8.5-5.6,12.7-16.8,12.7c0-3-2-5.3-6-6.9c-2.7-1-8-2.2-15.9-3.7V88.5z M143.6,4.3c15.1,13.7,26.8,28.2,34.9,43.4
		c4.2,8.1,6.3,14.6,6.3,19.6c0,4.9-1.9,7.3-5.6,7.3c-2.5,0-4.5-3-6-8.9C169,48,158.1,28.5,140.7,7L143.6,4.3z"/>
</g>
</svg>
