<?xml version="1.0" encoding="utf-8"?>
<!-- Generator: Adobe Illustrator 19.0.0, SVG Export Plug-In . SVG Version: 6.00 Build 0)  -->
<svg version="1.1" id="圖層_1" xmlns="http://www.w3.org/2000/svg" xmlns:xlink="http://www.w3.org/1999/xlink" x="0px" y="0px"
	 viewBox="45 -33.8 150 150" style="enable-background:new 45 -33.8 150 150;" xml:space="preserve">
<style type="text/css">
	.st0{enable-background:new    ;}
</style>
<g class="st0">
	<path d="M53.7,66.8c13-19,22.3-37.9,27.9-56.5c10.2,2.7,15.3,5.2,15.3,7.5c0,1.4-2.2,2.4-6.7,3C83,36.7,71.8,52.8,56.7,69.2
		L53.7,66.8z M114.7,79.5V-8.2c11.1,0.5,16.6,1.9,16.6,4.2c0,1.4-2.4,3-7.2,4.6v78.9H114.7z M143.6,11.6
		c15.1,11.3,26.8,22.8,34.9,34.6c4.2,5.2,6.3,9.7,6.3,13.7c0,4.9-1.9,7.3-5.6,7.3c-2.5,0-4.5-1.7-6-5.2
		c-4.3-12.7-15.1-28.6-32.5-47.7L143.6,11.6z"/>
</g>
</svg>
