<?xml version="1.0" encoding="utf-8"?>
<!-- Generator: Adobe Illustrator 19.0.0, SVG Export Plug-In . SVG Version: 6.00 Build 0)  -->
<svg version="1.1" id="圖層_1" xmlns="http://www.w3.org/2000/svg" xmlns:xlink="http://www.w3.org/1999/xlink" x="0px" y="0px"
	 viewBox="45 -33.8 150 150" style="enable-background:new 45 -33.8 150 150;" xml:space="preserve">
<style type="text/css">
	.st0{enable-background:new    ;}
</style>
<g class="st0">
	<path d="M77.4,23.8l3.6,1c-0.6,13-3.8,23.3-9.6,30.9c-3.2,4.2-6.2,6.3-9,6.3c-3.9,0-5.9-1.9-5.9-5.6c0-1.4,1-2.8,3-4.2
		C68.8,46.4,74.7,36.9,77.4,23.8z M116.6,23.3c7.5,11.2,11.2,20.4,11.2,27.5c0,5.7-2.1,8.6-6.2,8.6c-2.7,0-4-1.5-4-4.5
		c0-0.9,0-1.8,0.1-2.7v-2.1c0-9-1.4-17.4-4.3-25.2L116.6,23.3z M155.6,22.1c19,11.2,28.5,21.2,28.5,29.9c0,4.5-1.8,6.7-5.4,6.7
		c-2.4,0-4.2-2-5.4-5.9c-2.8-9.4-9.4-18.8-19.9-28.2L155.6,22.1z"/>
</g>
</svg>
