<?xml version="1.0" encoding="utf-8"?>
<!-- Generator: Adobe Illustrator 19.0.0, SVG Export Plug-In . SVG Version: 6.00 Build 0)  -->
<svg version="1.1" id="圖層_1" xmlns="http://www.w3.org/2000/svg" xmlns:xlink="http://www.w3.org/1999/xlink" x="0px" y="0px"
	 viewBox="45 -33.8 150 150" style="enable-background:new 45 -33.8 150 150;" xml:space="preserve">
<style type="text/css">
	.st0{enable-background:new    ;}
</style>
<g class="st0">
	<path d="M54.2,75.8c15-8.4,25.4-19.6,31.2-33.4c4.3-10.3,6.4-22.7,6.4-37.2V-6.5c10.4,0.1,15.6,1.4,15.6,3.7c0,1.4-2.1,3-6.2,4.6
		v3.3c0,22.6-5.1,40.2-15.3,53c-6.7,8.3-16.5,15.3-29.4,20.9L54.2,75.8z M184.2,68.8c-0.1,1.8-1.8,3.2-5.1,4.2
		c-2.7,1-9.8,1.5-21.2,1.5c-13.9,0-21.9-1-24.2-3.1c-1.8-1.7-2.7-4.9-2.7-9.6V-7.7c10.3,0.4,15.5,1.9,15.5,4.2
		c0,1.4-2.1,2.9-6.4,4.5v59.8c0,2.8,0.8,4.5,2.4,5.1c1.5,0.5,5.5,0.7,11.9,0.7c6.5,0,12.8-0.3,18.7-1c4.7-0.9,7.7-0.9,9-0.1
		C183.5,66.3,184.2,67.4,184.2,68.8z"/>
</g>
</svg>
