<?xml version="1.0" encoding="utf-8"?>
<!-- Generator: Adobe Illustrator 19.0.0, SVG Export Plug-In . SVG Version: 6.00 Build 0)  -->
<svg version="1.1" id="圖層_1" xmlns="http://www.w3.org/2000/svg" xmlns:xlink="http://www.w3.org/1999/xlink" x="0px" y="0px"
	 viewBox="45 -33.8 150 150" style="enable-background:new 45 -33.8 150 150;" xml:space="preserve">
<style type="text/css">
	.st0{enable-background:new    ;}
</style>
<g class="st0">
	<path d="M163.2,29.7l9-11.6c3.9,3.6,7.7,7.6,11.4,12.2l-1.8,3.1h-33.8c1.8,5.3,3.8,10.1,5.9,14.2c8.2,15.9,19.8,29.6,34.9,41.2
		c-2.7,1.8-5.2,4.5-7.5,8.3c-15.2-12.4-27-29.5-35.2-51.2c-1.5-4.1-2.9-8.2-4.2-12.5H94.8c0,0-0.1,0.1-0.1,0.2
		c-3.1,11.3-6.3,20-9.5,26.3C77.2,75.3,67.1,88,55,97.9l-2.9-3c14.1-14.3,24.4-31.6,30.9-52.1c0.9-2.8,1.7-5.9,2.6-9.4H57.7
		l-1.5-3.7h30.2c0.9-4.4,1.8-9.3,2.7-14.6c1.8-10.9,3-21.4,3.6-31.6c10.6,2.2,15.9,4.4,15.9,6.5c0,1.3-2.1,2.5-6.3,3.6
		c-1.1,11.6-3.3,23.6-6.6,36.2"/>
</g>
</svg>
