<?xml version="1.0" encoding="utf-8"?>
<!-- Generator: Adobe Illustrator 19.0.0, SVG Export Plug-In . SVG Version: 6.00 Build 0)  -->
<svg version="1.1" id="圖層_1" xmlns="http://www.w3.org/2000/svg" xmlns:xlink="http://www.w3.org/1999/xlink" x="0px" y="0px"
	 viewBox="45 -33.8 150 150" style="enable-background:new 45 -33.8 150 150;" xml:space="preserve">
<style type="text/css">
	.st0{enable-background:new    ;}
</style>
<g class="st0">
	<path d="M121.7,27.8c-5.4,38.9-27,64.1-64.8,75.7l-2.4-3.7c35.4-13.8,55.1-40.3,58.8-79.5H57.7l-1.3-3.7h57.1
		c0.2-4.6,0.3-8,0.3-10.2v-31.5c10.4,0.4,15.6,1.8,15.6,4c0,1.5-2.1,2.9-6.4,4.2v23c0,2.2-0.1,5.7-0.3,10.5h42.4l8-10.8
		c3.8,3.7,7.3,7.6,10.6,11.7l-1.6,2.9H124c9.5,32.2,30.5,55.8,63,70.7c-3.6,2.5-6.4,5.5-8.5,9C148.7,83.7,129.8,59.6,121.7,27.8z"/>
</g>
</svg>
